<svg width="106" height="32" viewBox="0 0 106 32" fill="none" xmlns="http://www.w3.org/2000/svg">
<path d="M14.7159 18.9733C13.8095 19.7106 12.8777 20.2498 11.9241 20.5897C10.9692 20.9296 9.90706 21.1008 8.73517 21.1008C7.56327 21.1008 6.57648 20.9028 5.60373 20.5054C4.63098 20.108 3.78972 19.5688 3.08122 18.889C2.37273 18.2079 1.81486 17.3991 1.40891 16.4637C1.00296 15.5271 0.799988 14.5202 0.799988 13.443C0.799988 12.3658 0.994025 11.3857 1.38083 10.4504C1.76763 9.51377 2.30124 8.70109 2.98165 8.01108C3.66207 7.32107 4.47013 6.77673 5.40459 6.38061C6.34032 5.98322 7.33604 5.78516 8.39432 5.78516C9.4526 5.78516 10.4011 5.98833 11.2998 6.39467C12.1972 6.80101 12.9721 7.35429 13.6232 8.05452C14.2755 8.75476 14.7849 9.59171 15.1538 10.5654C15.5227 11.5391 15.7065 12.5933 15.7065 13.7279V14.7489H4.71013C4.97438 15.6753 5.48501 16.4228 6.24075 16.9902C6.99648 17.5575 7.88497 17.8412 8.90495 17.8412C9.54707 17.8412 10.1522 17.7377 10.719 17.5294C11.2858 17.3211 11.767 17.0285 12.164 16.6503L14.7159 18.9733ZM8.31135 8.98859C7.42285 8.98859 6.65818 9.25821 6.01607 9.79744C5.37395 10.3367 4.9297 11.0599 4.6846 11.9671H11.9113C11.6649 11.097 11.2168 10.3839 10.5658 9.82555C9.91217 9.26715 9.16155 8.98859 8.31135 8.98859Z" fill="white"/>
<path d="M24.7173 17.7249C25.3786 17.7249 25.9964 17.5933 26.5734 17.3275C27.1492 17.063 27.7019 16.6464 28.2317 16.0791L30.5551 18.4903C29.7994 19.3221 28.8917 19.97 27.8347 20.4338C26.7764 20.8964 25.6811 21.1289 24.5475 21.1289C23.4139 21.1289 22.4552 20.9309 21.5003 20.5335C20.5455 20.1361 19.7246 19.5969 19.0353 18.9171C18.3459 18.236 17.8021 17.4272 17.4051 16.4918C17.0081 15.5552 16.8102 14.5483 16.8102 13.4711C16.8102 12.3939 17.0081 11.3857 17.4051 10.4504C17.8021 9.51377 18.3447 8.70109 19.0353 8.01108C19.7246 7.32107 20.5467 6.77673 21.5003 6.38061C22.4539 5.98322 23.4701 5.78516 24.5475 5.78516C25.7181 5.78516 26.8428 6.01644 27.9202 6.48028C28.9977 6.94412 29.913 7.59196 30.6687 8.42381L28.2879 10.9487C27.7581 10.3622 27.1926 9.91755 26.5875 9.61599C25.9824 9.31316 25.3313 9.16237 24.6318 9.16237C23.5173 9.16237 22.5765 9.57894 21.8118 10.4108C21.0472 11.2426 20.6642 12.2649 20.6642 13.4749C20.6642 14.685 21.0561 15.697 21.8399 16.5097C22.625 17.3186 23.5837 17.7249 24.7173 17.7249Z" fill="white"/>
<path d="M45.7155 18.9733C44.8091 19.7106 43.8772 20.2498 42.9236 20.5897C41.9688 20.9296 40.9066 21.1008 39.7347 21.1008C38.5628 21.1008 37.5761 20.9028 36.6033 20.5054C35.6306 20.108 34.7893 19.5688 34.0808 18.889C33.3723 18.2079 32.8144 17.3991 32.4085 16.4637C32.0025 15.5271 31.7996 14.5202 31.7996 13.443C31.7996 12.3658 31.9936 11.3857 32.3804 10.4504C32.7672 9.51377 33.3008 8.70109 33.9812 8.01108C34.6616 7.32107 35.4697 6.77673 36.4042 6.38061C37.3399 5.98322 38.3356 5.78516 39.3939 5.78516C40.4522 5.78516 41.4007 5.98833 42.2994 6.39467C43.1968 6.80101 43.9717 7.35429 44.6227 8.05452C45.2751 8.75476 45.7844 9.59171 46.1534 10.5654C46.5223 11.5391 46.7061 12.5933 46.7061 13.7279V14.7489H35.7097C35.974 15.6753 36.4846 16.4228 37.2403 16.9902C37.996 17.5575 38.8845 17.8412 39.9045 17.8412C40.5466 17.8412 41.1517 17.7377 41.7185 17.5294C42.2853 17.3211 42.7666 17.0285 43.1636 16.6503L45.7155 18.9733ZM39.3109 8.98859C38.4224 8.98859 37.6578 9.25821 37.0156 9.79744C36.3735 10.3367 35.9293 11.0599 35.6842 11.9671H42.9109C42.6645 11.097 42.2164 10.3839 41.5654 9.82555C40.9117 9.26715 40.1611 8.98859 39.3109 8.98859Z" fill="white"/>
<path d="M47.7543 21.0554V5.78516H51.6363V7.2329C52.2031 6.76012 52.8312 6.40105 53.5206 6.15444C54.2099 5.9091 54.9605 5.78516 55.7737 5.78516C57.4741 5.78516 58.872 6.33333 59.9685 7.43096C61.0638 8.52731 61.6128 9.93672 61.6128 11.6579V21.0554H57.7307V12.2253C57.7307 11.2989 57.4511 10.5513 56.8945 9.984C56.3367 9.41666 55.595 9.13299 54.6695 9.13299C54.0274 9.13299 53.4465 9.26077 52.927 9.51633C52.4074 9.77188 51.9772 10.1361 51.6376 10.6088V21.0554H47.7543Z" fill="white"/>
<path d="M65.72 16.6595V9.3122H62.6882V5.71792H65.72V1.88816L69.6021 1.00903V5.71792H73.7969V9.3122H69.6021V15.8647C69.6021 16.565 69.7527 17.0557 70.0553 17.3393C70.3578 17.623 70.8863 17.7648 71.6421 17.7648C72.0008 17.7648 72.3403 17.7418 72.662 17.6933C72.9825 17.646 73.3322 17.5566 73.7101 17.4237V20.6003C73.2939 20.7332 72.7935 20.8418 72.2076 20.9261C71.6216 21.0117 71.1212 21.0539 70.7051 21.0539C69.0608 21.0539 67.8187 20.6808 66.9787 19.9333C66.1413 19.1883 65.72 18.0971 65.72 16.6595Z" fill="white"/>
<path d="M74.9313 20.7695V5.7179H78.8133V7.60694C79.2857 6.96421 79.8576 6.47737 80.5278 6.14642C81.198 5.81547 81.9397 5.65063 82.7528 5.65063C83.1307 5.6698 83.4473 5.70302 83.7026 5.7503C83.9579 5.79758 84.1801 5.87808 84.369 5.99181V9.39586C84.0856 9.26425 83.7741 9.16458 83.4333 9.09813C83.0937 9.03169 82.7439 8.99846 82.3852 8.99846C81.6295 8.99846 80.935 9.18758 80.3018 9.56581C79.6686 9.94403 79.1721 10.4922 78.8133 11.2116V21.0554H74.9313V20.7695Z" fill="white"/>
<path d="M87.6364 4.42629C87.0313 4.42629 86.5117 4.20906 86.0777 3.77334C85.6424 3.33888 85.4254 2.81882 85.4254 2.21315C85.4254 1.60747 85.6424 1.08868 86.0777 0.652955C86.5117 0.218503 87.0313 0 87.6364 0C88.2415 0 88.7598 0.217226 89.1951 0.652955C89.6291 1.08868 89.8474 1.60875 89.8474 2.21315C89.8474 2.81754 89.6304 3.33888 89.1951 3.77334C88.7598 4.20906 88.2402 4.42629 87.6364 4.42629ZM89.5921 5.71793V21.0554H85.71V5.71793H89.5921Z" fill="white"/>
<path d="M98.8486 17.7087C99.5099 17.7087 100.128 17.577 100.705 17.3113C101.281 17.0468 101.833 16.6302 102.363 16.0629L104.686 18.4741C103.931 19.3059 103.023 19.9538 101.966 20.4176C100.908 20.8802 99.8124 21.1127 98.6788 21.1127C97.5452 21.1127 96.5865 20.9147 95.6317 20.5173C94.6768 20.1199 93.8559 19.5806 93.1666 18.9008C92.4772 18.2198 91.9334 17.4109 91.5364 16.4756C91.1394 15.539 90.9415 14.5321 90.9415 13.4549C90.9415 12.3777 91.1394 11.3695 91.5364 10.4342C91.9334 9.49753 92.476 8.68486 93.1666 7.99484C93.8559 7.30483 94.6781 6.76049 95.6317 6.36437C96.5853 5.96698 97.6014 5.76892 98.6788 5.76892C99.8495 5.76892 100.974 6.0002 102.052 6.46404C103.129 6.92788 104.044 7.57573 104.8 8.40757L102.419 10.9325C101.889 10.346 101.324 9.90132 100.719 9.59976C100.114 9.29692 99.4627 9.14614 98.7631 9.14614C97.6487 9.14614 96.7078 9.5627 95.9431 10.3945C95.1785 11.2264 94.7955 12.2486 94.7955 13.4587C94.7955 14.6688 95.1874 15.6808 95.9712 16.4935C96.755 17.3023 97.715 17.7087 98.8486 17.7087Z" fill="white"/>
<path d="M0.860229 31.5038V24.9509H3.50949C3.94011 24.9509 4.31144 25.0258 4.62349 25.1755C4.93553 25.3253 5.17268 25.5375 5.33495 25.8121C5.50345 26.0805 5.5877 26.3988 5.5877 26.767C5.5877 27.1352 5.50345 27.4597 5.33495 27.7406C5.17268 28.0152 4.93553 28.2305 4.62349 28.3865C4.31144 28.5363 3.94011 28.6112 3.50949 28.6112H1.29085V31.5038H0.860229ZM1.29085 28.2086H3.49076C4.02748 28.2086 4.43626 28.0776 4.7171 27.8154C5.00418 27.5533 5.14772 27.2038 5.14772 26.767C5.14772 26.3426 5.00418 26.0025 4.7171 25.7466C4.43626 25.4845 4.02748 25.3534 3.49076 25.3534H1.29085V28.2086Z" fill="white"/>
<path d="M6.45717 31.5038L9.19068 24.9509H9.72427L12.4484 31.5038H11.9804L11.0723 29.2852H7.82392L6.90651 31.5038H6.45717ZM7.98307 28.9014H10.9132L9.4528 25.3534L7.98307 28.9014Z" fill="white"/>
<path d="M15.5861 31.5038V28.7703L13.0211 24.9509H13.536L15.8108 28.3771L18.0949 24.9509H18.5911L16.0167 28.789V31.5038H15.5861Z" fill="white"/>
<path d="M20.9549 31.5038V24.9509H21.629L24.0723 30.109L26.5062 24.9509H27.1802V31.5038H26.7496V25.3628L24.0723 31.0357L21.3856 25.3815V31.5038H20.9549Z" fill="white"/>
<path d="M30.2525 31.5038V24.9509H34.7834V25.3534H30.6832V27.9933H33.3605V28.3958H30.6832V31.1013H34.8209V31.5038H30.2525Z" fill="white"/>
<path d="M37.4018 31.5038V24.9509H37.8698L42.1012 30.7455V24.9509H42.5318V31.5038H42.1573L37.8324 25.5874V31.5038H37.4018Z" fill="white"/>
<path d="M47.4184 31.5038V25.3534H44.9845V24.9509H50.283V25.3534H47.8491V31.5038H47.4184Z" fill="white"/>
<path d="M58.0652 31.6068C57.541 31.6068 57.051 31.5007 56.5955 31.2885C56.1399 31.0701 55.7405 30.758 55.3972 30.3524L55.7342 30.0715C56.0463 30.4397 56.3989 30.7206 56.792 30.914C57.1915 31.1075 57.6158 31.2042 58.0652 31.2042C58.4396 31.2042 58.7735 31.1387 59.0668 31.0077C59.3602 30.8766 59.5911 30.6987 59.7596 30.4741C59.9281 30.2432 60.0123 29.9842 60.0123 29.6971C60.0123 29.3164 59.8813 29.0262 59.6192 28.8265C59.3633 28.6205 58.9296 28.4676 58.3179 28.3678L57.5222 28.2367C56.8669 28.1306 56.3864 27.9465 56.0806 27.6844C55.7748 27.4223 55.6219 27.0634 55.6219 26.6078C55.6219 26.2583 55.7124 25.9525 55.8934 25.6904C56.0806 25.4283 56.3396 25.2224 56.6703 25.0726C57.0011 24.9228 57.3787 24.8479 57.8031 24.8479C58.2337 24.8479 58.6643 24.9228 59.0949 25.0726C59.5256 25.2161 59.9343 25.4314 60.3213 25.7185L60.0591 26.0742C59.3227 25.525 58.5707 25.2504 57.8031 25.2504C57.4661 25.2504 57.1665 25.3066 56.9044 25.4189C56.6423 25.5313 56.4363 25.6904 56.2865 25.8964C56.1367 26.0961 56.0619 26.327 56.0619 26.5891C56.0619 26.9324 56.1773 27.2007 56.4082 27.3942C56.6391 27.5814 57.0261 27.7187 57.569 27.8061L58.3647 27.9371C59.1074 28.0557 59.641 28.2554 59.9655 28.5363C60.2901 28.8109 60.4523 29.2072 60.4523 29.7252C60.4523 30.0871 60.3493 30.4117 60.1434 30.6987C59.9375 30.9796 59.6535 31.2011 59.2915 31.3634C58.9358 31.5257 58.527 31.6068 58.0652 31.6068Z" fill="white"/>
<path d="M64.7075 31.5038V28.7703L62.1424 24.9509H62.6573L64.9321 28.3771L67.2163 24.9509H67.7124L65.1381 28.789V31.5038H64.7075Z" fill="white"/>
<path d="M71.9706 31.6068C71.4463 31.6068 70.9564 31.5007 70.5008 31.2885C70.0452 31.0701 69.6458 30.758 69.3026 30.3524L69.6396 30.0715C69.9516 30.4397 70.3043 30.7206 70.6974 30.914C71.0968 31.1075 71.5212 31.2042 71.9706 31.2042C72.345 31.2042 72.6789 31.1387 72.9722 31.0077C73.2655 30.8766 73.4965 30.6987 73.665 30.4741C73.8335 30.2432 73.9177 29.9842 73.9177 29.6971C73.9177 29.3164 73.7867 29.0262 73.5245 28.8265C73.2687 28.6205 72.8349 28.4676 72.2233 28.3678L71.4276 28.2367C70.7723 28.1306 70.2918 27.9465 69.986 27.6844C69.6802 27.4223 69.5273 27.0634 69.5273 26.6078C69.5273 26.2583 69.6178 25.9525 69.7987 25.6904C69.986 25.4283 70.245 25.2224 70.5757 25.0726C70.9065 24.9228 71.2841 24.8479 71.7084 24.8479C72.1391 24.8479 72.5697 24.9228 73.0003 25.0726C73.4309 25.2161 73.8397 25.4314 74.2266 25.7185L73.9645 26.0742C73.2281 25.525 72.4761 25.2504 71.7084 25.2504C71.3714 25.2504 71.0719 25.3066 70.8098 25.4189C70.5476 25.5313 70.3417 25.6904 70.1919 25.8964C70.0421 26.0961 69.9672 26.327 69.9672 26.5891C69.9672 26.9324 70.0827 27.2007 70.3136 27.3942C70.5445 27.5814 70.9315 27.7187 71.4744 27.8061L72.2701 27.9371C73.0128 28.0557 73.5464 28.2554 73.8709 28.5363C74.1954 28.8109 74.3577 29.2072 74.3577 29.7252C74.3577 30.0871 74.2547 30.4117 74.0488 30.6987C73.8428 30.9796 73.5589 31.2011 73.1969 31.3634C72.8412 31.5257 72.4324 31.6068 71.9706 31.6068Z" fill="white"/>
<path d="M78.5754 31.5038V25.3534H76.1414V24.9509H81.4399V25.3534H79.006V31.5038H78.5754Z" fill="white"/>
<path d="M83.8902 31.5038V24.9509H88.4211V25.3534H84.3209V27.9933H86.9982V28.3958H84.3209V31.1013H88.4586V31.5038H83.8902Z" fill="white"/>
<path d="M91.0395 31.5038V24.9509H91.7135L94.1568 30.109L96.5907 24.9509H97.2648V31.5038H96.8341V25.3628L94.1568 31.0357L91.4701 25.3815V31.5038H91.0395Z" fill="white"/>
<path d="M102.368 31.6068C101.844 31.6068 101.354 31.5007 100.899 31.2885C100.443 31.0701 100.044 30.758 99.7005 30.3524L100.037 30.0715C100.35 30.4397 100.702 30.7206 101.095 30.914C101.495 31.1075 101.919 31.2042 102.368 31.2042C102.743 31.2042 103.077 31.1387 103.37 31.0077C103.663 30.8766 103.894 30.6987 104.063 30.4741C104.231 30.2432 104.316 29.9842 104.316 29.6971C104.316 29.3164 104.185 29.0262 103.922 28.8265C103.667 28.6205 103.233 28.4676 102.621 28.3678L101.826 28.2367C101.17 28.1306 100.69 27.9465 100.384 27.6844C100.078 27.4223 99.9252 27.0634 99.9252 26.6078C99.9252 26.2583 100.016 25.9525 100.197 25.6904C100.384 25.4283 100.643 25.2224 100.974 25.0726C101.304 24.9228 101.682 24.8479 102.106 24.8479C102.537 24.8479 102.968 24.9228 103.398 25.0726C103.829 25.2161 104.238 25.4314 104.625 25.7185L104.362 26.0742C103.626 25.525 102.874 25.2504 102.106 25.2504C101.769 25.2504 101.47 25.3066 101.208 25.4189C100.946 25.5313 100.74 25.6904 100.59 25.8964C100.44 26.0961 100.365 26.327 100.365 26.5891C100.365 26.9324 100.481 27.2007 100.712 27.3942C100.942 27.5814 101.329 27.7187 101.872 27.8061L102.668 27.9371C103.411 28.0557 103.944 28.2554 104.269 28.5363C104.593 28.8109 104.756 29.2072 104.756 29.7252C104.756 30.0871 104.653 30.4117 104.447 30.6987C104.241 30.9796 103.957 31.2011 103.595 31.3634C103.239 31.5257 102.83 31.6068 102.368 31.6068Z" fill="white"/>
</svg>
