<svg width="184" height="66" viewBox="0 0 184 66" fill="none" xmlns="http://www.w3.org/2000/svg">
<path d="M101.133 52.2567L111.734 2.13281H141.317L139.014 13.0108H122.857L120.863 22.6089H135.793L133.425 33.5509H118.431L114.549 52.2567H101.133Z" fill="white"/>
<path d="M146.244 52.2567L154.371 13.1707H143.493L145.86 2.13281H181.139L178.708 13.2134H167.787L159.661 52.2567H146.244Z" fill="white"/>
<path d="M47.3617 23.0679C47.191 23.4625 47.0097 23.8571 46.8178 24.241C46.6258 24.6249 46.0713 25.6914 45.1434 27.4404H47.7883L47.5536 25.4354C47.4487 24.6501 47.3846 23.8598 47.3617 23.0679Z" fill="white"/>
<path d="M13.3628 13.5762C6.1215 13.5762 1.37573 19.4417 1.37573 26.6617C1.37573 33.8817 6.1215 39.7899 13.3628 39.7899H74.4072L80.0489 13.5762H13.3628ZM14.2693 31.5888H13.1495L15.2291 21.7773H16.3596L14.2693 31.5888ZM24.646 31.5888H23.4622L20.3801 23.3877C20.2415 24.3795 20.0709 25.3073 19.8896 26.1925L18.7271 31.5888H17.6607L19.7296 21.7773H20.9347L24.0168 29.9677C24.1291 29.0535 24.2893 28.1457 24.4967 27.2483L25.5952 21.7773H26.6616L24.646 31.5888ZM33.9989 23.2064C33.6865 23.033 33.3532 22.9004 33.0071 22.8118C32.6771 22.719 32.3366 22.6688 31.9939 22.6625C31.4728 22.6375 30.9606 22.8045 30.5542 23.1317C30.3742 23.2866 30.2316 23.4803 30.1374 23.6983C30.0432 23.9163 29.9997 24.1529 30.0103 24.3901C30.0029 24.6015 30.0392 24.812 30.117 25.0087C30.2011 25.1964 30.3248 25.3637 30.4796 25.4993C30.7818 25.7379 31.1028 25.9519 31.4394 26.1391C31.9106 26.4025 32.3538 26.7134 32.7618 27.067C32.9831 27.2775 33.1638 27.527 33.295 27.8028C33.4159 28.1006 33.474 28.4201 33.4657 28.7413C33.4859 29.1531 33.4119 29.5641 33.2493 29.943C33.0867 30.3219 32.8397 30.6586 32.5272 30.9276C31.7588 31.4865 30.8203 31.7617 29.8717 31.7061C29.4537 31.711 29.0362 31.6789 28.6239 31.6101C28.255 31.549 27.8962 31.4377 27.5574 31.2795V30.1597C28.2599 30.5336 29.0439 30.7278 29.8397 30.7249C30.4555 30.7561 31.0639 30.5796 31.5674 30.2237C31.7765 30.0577 31.9434 29.8446 32.0546 29.6018C32.1658 29.359 32.2181 29.0934 32.2072 28.8266C32.211 28.4873 32.0851 28.1592 31.8553 27.9095C31.4689 27.5282 31.0266 27.2081 30.5435 26.9603C29.9919 26.6946 29.5099 26.3039 29.1358 25.8192C28.8954 25.4329 28.7765 24.9834 28.7945 24.5288C28.7675 24.13 28.8322 23.7304 28.9839 23.3606C29.1355 22.9909 29.3699 22.6608 29.669 22.3958C30.3219 21.8613 31.1515 21.5911 31.9939 21.6386C32.4098 21.6351 32.8247 21.678 33.231 21.7666C33.6513 21.8667 34.0591 22.0133 34.4468 22.2039L33.9989 23.2064ZM38.1901 31.5888H37.0383L38.894 22.7904H36.1745L36.3984 21.7773H42.9999L42.8079 22.7904H40.0671L38.1901 31.5888ZM48.2895 31.5888L47.9056 28.4747H44.5782L42.9359 31.5888H41.6668L46.9991 21.7773H48.1722L49.3987 31.5888H48.2895ZM58.4103 31.5888H57.1945L54.1124 23.3877C53.9738 24.3795 53.8032 25.3073 53.6219 26.1925L52.4701 31.5888H51.4036L53.4725 21.7773H54.6777L57.6957 29.9677C57.808 29.0535 57.9682 28.1457 58.1757 27.2483L59.3488 21.7773H60.4152L58.4103 31.5888ZM68.979 22.7904H66.2488L64.3718 31.5888H63.22L65.0544 22.7904H62.3562L62.5802 21.7773H69.1816L68.979 22.7904Z" fill="white"/>
<path d="M104.61 13.0108L106.838 2.13281H77.0521L74.8658 12.5095H80.0488H81.3713L81.0833 13.7999L75.4524 40.0136L75.2711 40.8562H74.4072H68.8723L66.4514 52.2993H96.2378L98.5733 41.2508H82.2031L84.1547 31.7805H99.3945L101.869 20.9026H86.6289L88.2393 13.0108H104.61Z" fill="white"/>
<path d="M119.305 63.9028C118.929 64.2044 118.508 64.4455 118.058 64.6173C117.601 64.7716 117.121 64.8473 116.639 64.8413C116.157 64.8499 115.678 64.7591 115.232 64.5747C114.833 64.4073 114.471 64.1647 114.165 63.8601C113.826 63.5572 113.556 63.1855 113.372 62.77C113.188 62.3544 113.095 61.9044 113.099 61.4499C113.096 60.9966 113.183 60.5471 113.355 60.1275C113.525 59.7312 113.768 59.3697 114.069 59.0611C114.377 58.7582 114.738 58.5158 115.136 58.3465C115.557 58.1663 116.011 58.0755 116.469 58.0799C116.917 58.0735 117.36 58.1645 117.77 58.3465C118.172 58.5165 118.535 58.7669 118.836 59.0824C119.133 59.3906 119.368 59.7526 119.529 60.1488C119.694 60.5963 119.777 61.0694 119.775 61.5459V62.0045H114.858C114.966 62.4004 115.207 62.747 115.541 62.9856C115.885 63.2431 116.305 63.3782 116.735 63.3696C117.011 63.3677 117.285 63.3209 117.546 63.2309C117.784 63.1444 118.002 63.0101 118.186 62.8363L119.305 63.9028ZM116.447 59.4876C116.06 59.4672 115.68 59.5928 115.381 59.8396C115.088 60.0905 114.879 60.4257 114.784 60.7994H117.983C117.88 60.4321 117.668 60.1047 117.375 59.8609C117.119 59.6312 116.791 59.499 116.447 59.4876Z" fill="white"/>
<path d="M123.774 63.3055C124.06 63.3097 124.344 63.2515 124.606 63.1349C124.887 62.998 125.14 62.8099 125.352 62.5803L126.419 63.6468C126.076 64.0118 125.663 64.3022 125.203 64.5C124.739 64.7033 124.238 64.8086 123.731 64.8092C123.266 64.8157 122.805 64.7249 122.377 64.5426C121.961 64.3876 121.582 64.1498 121.261 63.8437C120.94 63.5375 120.685 63.1694 120.51 62.7616C120.33 62.3405 120.239 61.8866 120.244 61.4285C120.236 60.9702 120.327 60.5156 120.51 60.0955C120.683 59.6977 120.929 59.336 121.236 59.029C121.902 58.3999 122.783 58.0489 123.699 58.0479C124.22 58.0484 124.735 58.1536 125.214 58.3571C125.681 58.5521 126.099 58.8469 126.44 59.221L125.374 60.2874C125.16 60.0458 124.904 59.8468 124.616 59.7009C124.345 59.5652 124.045 59.4957 123.742 59.4982C123.504 59.4935 123.269 59.5407 123.051 59.6365C122.834 59.7323 122.64 59.8743 122.483 60.0528C122.142 60.4195 121.958 60.906 121.972 61.4072C121.964 61.6548 122.006 61.9014 122.096 62.1322C122.186 62.3631 122.321 62.5735 122.494 62.751C122.658 62.9262 122.856 63.0659 123.076 63.1613C123.296 63.2567 123.534 63.3058 123.774 63.3055Z" fill="white"/>
<path d="M133.169 63.8601C132.796 64.1655 132.374 64.4069 131.922 64.5746C131.461 64.7291 130.978 64.8048 130.493 64.7986C130.014 64.8069 129.538 64.7161 129.096 64.532C128.677 64.3682 128.293 64.1257 127.965 63.8174C127.646 63.5168 127.392 63.1538 127.219 62.751C127.035 62.3306 126.941 61.8766 126.941 61.4179C126.935 60.9631 127.026 60.5123 127.208 60.0955C127.372 59.6845 127.62 59.3121 127.936 59.0019C128.252 58.6917 128.628 58.4503 129.042 58.2931C129.467 58.1129 129.925 58.0221 130.386 58.0265C130.822 58.0313 131.253 58.1223 131.654 58.2944C132.055 58.4664 132.418 58.7161 132.722 59.029C133.011 59.3404 133.243 59.7017 133.404 60.0955C133.568 60.5429 133.651 61.016 133.649 61.4925V61.9511H128.733C128.848 62.3467 129.087 62.6946 129.416 62.9429C129.763 63.1923 130.182 63.3231 130.61 63.3162C130.886 63.3197 131.161 63.2727 131.42 63.1775C131.662 63.0913 131.883 62.957 132.071 62.7829L133.169 63.8601ZM130.301 59.4449C129.912 59.4253 129.53 59.555 129.234 59.8075C128.939 60.0523 128.73 60.3848 128.637 60.7567H131.836C131.738 60.3901 131.53 60.0626 131.239 59.8182C130.977 59.5922 130.646 59.4608 130.301 59.4449Z" fill="white"/>
<path d="M134.076 64.7773V58.0266H135.814V58.6558C136.066 58.4526 136.351 58.294 136.657 58.1866C136.978 58.0686 137.317 58.0108 137.659 58.0159C138.005 58.005 138.349 58.0635 138.671 58.1881C138.994 58.3127 139.288 58.5007 139.536 58.7411C139.781 58.9868 139.973 59.2802 140.099 59.6031C140.226 59.926 140.285 60.2715 140.272 60.6181V64.7667H138.534V60.8741C138.546 60.6916 138.52 60.5084 138.456 60.3371C138.391 60.1658 138.291 60.0101 138.162 59.8808C138.033 59.7514 137.877 59.6513 137.706 59.5871C137.534 59.523 137.351 59.4964 137.169 59.509C136.899 59.5036 136.633 59.5621 136.39 59.6796C136.16 59.7876 135.962 59.9529 135.814 60.1595V64.7773H134.076Z" fill="white"/>
<path d="M142.107 62.8364V59.5837H140.773V57.9946H142.128V56.3096L143.866 55.915V58.048H145.743V59.637H143.866V62.5378C143.853 62.6543 143.865 62.7722 143.9 62.8842C143.935 62.9961 143.992 63.0996 144.069 63.1883C144.274 63.3331 144.523 63.401 144.773 63.3803C144.925 63.3916 145.079 63.3916 145.231 63.3803C145.391 63.3538 145.547 63.3146 145.7 63.263V64.6601C145.481 64.7291 145.256 64.779 145.029 64.8094C144.806 64.8402 144.582 64.858 144.357 64.8627C143.761 64.9082 143.169 64.7337 142.693 64.3721C142.483 64.1789 142.321 63.9397 142.219 63.6732C142.118 63.4067 142.079 63.1203 142.107 62.8364Z" fill="white"/>
<path d="M146.223 64.6494V57.9947H147.961V58.8372C148.162 58.5622 148.425 58.3391 148.729 58.1866C149.04 58.0434 149.379 57.9705 149.721 57.9733C149.863 57.9601 150.006 57.9601 150.148 57.9733C150.253 57.9891 150.355 58.0254 150.446 58.08V59.5837C150.315 59.5189 150.175 59.4757 150.03 59.4557C149.874 59.44 149.717 59.44 149.561 59.4557C149.231 59.4534 148.906 59.5419 148.623 59.7117C148.337 59.8853 148.108 60.137 147.961 60.4369V64.788H146.223V64.6494Z" fill="white"/>
<path d="M151.907 57.4293C151.777 57.4311 151.647 57.4066 151.526 57.3571C151.405 57.3076 151.295 57.2342 151.203 57.1413C151.111 57.0514 151.038 56.9436 150.988 56.8244C150.939 56.7052 150.914 56.5772 150.915 56.4481C150.914 56.3207 150.939 56.1943 150.988 56.0769C151.038 55.9594 151.111 55.8535 151.203 55.7656C151.295 55.6727 151.405 55.5993 151.526 55.5498C151.647 55.5003 151.777 55.4758 151.907 55.4776C152.036 55.476 152.164 55.5007 152.284 55.5502C152.403 55.5997 152.511 55.673 152.601 55.7656C152.693 55.8535 152.766 55.9594 152.816 56.0769C152.865 56.1943 152.89 56.3207 152.888 56.4481C152.888 56.7083 152.785 56.9579 152.601 57.1419C152.417 57.3259 152.168 57.4293 151.907 57.4293ZM152.782 57.9945V64.7772H151.043V57.9945H152.782Z" fill="white"/>
<path d="M156.92 63.295C157.206 63.2972 157.489 63.239 157.752 63.1243C158.032 62.9909 158.282 62.8023 158.487 62.5698L159.554 63.6362C159.216 64.0093 158.801 64.3041 158.338 64.5001C157.877 64.6989 157.379 64.8005 156.877 64.7987C156.41 64.8043 155.946 64.7173 155.512 64.5427C155.115 64.3737 154.753 64.1313 154.445 63.8282C154.133 63.5244 153.883 63.162 153.71 62.7617C153.534 62.3393 153.443 61.8863 153.443 61.4287C153.443 60.9711 153.534 60.518 153.71 60.0956C153.883 59.6953 154.133 59.3329 154.445 59.0291C154.75 58.7193 155.112 58.4728 155.512 58.3039C155.946 58.1312 156.41 58.0443 156.877 58.048C157.393 58.0448 157.905 58.1464 158.381 58.3466C158.847 58.5424 159.266 58.8372 159.607 59.2104L158.541 60.2769C158.33 60.0299 158.073 59.8269 157.783 59.6797C157.51 59.5509 157.211 59.4853 156.909 59.4877C156.673 59.483 156.438 59.5292 156.221 59.623C156.004 59.7169 155.809 59.8562 155.651 60.0316C155.311 60.3995 155.127 60.8852 155.139 61.386C155.131 61.6336 155.173 61.8802 155.263 62.111C155.353 62.3419 155.488 62.5523 155.661 62.7297C155.821 62.9059 156.015 63.047 156.231 63.1443C156.448 63.2416 156.682 63.2929 156.92 63.295Z" fill="white"/>
<path d="M101.314 64.617V58.6554H103.564C103.908 58.6427 104.25 58.7046 104.567 58.8367C104.824 58.9437 105.044 59.1258 105.196 59.3593C105.341 59.5965 105.415 59.8704 105.409 60.1485C105.416 60.456 105.318 60.7566 105.132 61.0017C104.933 61.2546 104.655 61.4346 104.343 61.5136C104.717 61.5786 105.061 61.7617 105.324 62.0361C105.507 62.2937 105.597 62.6058 105.58 62.9213C105.585 63.2275 105.5 63.5284 105.335 63.7864C105.17 64.0444 104.932 64.248 104.652 64.3717C104.316 64.518 103.952 64.5908 103.586 64.585L101.314 64.617ZM101.709 61.2896H103.564C103.946 61.3113 104.324 61.198 104.631 60.9697C104.756 60.8682 104.857 60.7396 104.925 60.5937C104.993 60.4478 105.028 60.2883 105.026 60.1272C105.026 59.9678 104.991 59.8104 104.923 59.6665C104.854 59.5225 104.755 59.3957 104.631 59.2953C104.328 59.0589 103.948 58.9413 103.564 58.9647H101.655L101.709 61.2896ZM101.709 64.2437H103.628C104.06 64.2678 104.487 64.1395 104.834 63.8811C104.974 63.7691 105.087 63.6261 105.162 63.4632C105.238 63.3004 105.275 63.1222 105.271 62.9426C105.275 62.7646 105.238 62.5879 105.162 62.4268C105.086 62.2657 104.974 62.1246 104.834 62.0148C104.483 61.765 104.058 61.641 103.628 61.6629H101.709V64.2437Z" fill="white"/>
<path d="M107.99 64.6173V62.1004L105.644 58.6558H106.113L108.246 61.8018L110.379 58.6558H110.838L108.47 62.1751V64.6706L107.99 64.6173Z" fill="white"/>
</svg>
