<svg width="16" height="14" viewBox="0 0 16 14" fill="none" xmlns="http://www.w3.org/2000/svg">
<g id="Group">
<path id="Vector" d="M14.9999 0.666626H0.999919C0.631729 0.666626 0.333252 0.965103 0.333252 1.33329V1.99996C0.333252 2.36815 0.631729 2.66663 0.999919 2.66663H14.9999C15.3681 2.66663 15.6666 2.36815 15.6666 1.99996V1.33329C15.6666 0.965103 15.3681 0.666626 14.9999 0.666626Z" fill="white"/>
<path id="Vector_2" d="M14.9999 6H0.999919C0.631729 6 0.333252 6.29848 0.333252 6.66667V7.33333C0.333252 7.70152 0.631729 8 0.999919 8H14.9999C15.3681 8 15.6666 7.70152 15.6666 7.33333V6.66667C15.6666 6.29848 15.3681 6 14.9999 6Z" fill="white"/>
<path id="Vector_3" d="M14.9999 11.3333H0.999919C0.631729 11.3333 0.333252 11.6317 0.333252 11.9999V12.6666C0.333252 13.0348 0.631729 13.3333 0.999919 13.3333H14.9999C15.3681 13.3333 15.6666 13.0348 15.6666 12.6666V11.9999C15.6666 11.6317 15.3681 11.3333 14.9999 11.3333Z" fill="white"/>
</g>
</svg>
