<svg width="172" height="172" viewBox="0 0 172 172" fill="none" xmlns="http://www.w3.org/2000/svg">
<circle opacity="0.3" cx="86" cy="86" r="86" fill="url(#paint0_linear_1_352)"/>
<g filter="url(#filter0_d_1_352)">
<g filter="url(#filter1_d_1_352)">
<circle cx="85.874" cy="85.874" r="60.874" fill="white"/>
<circle cx="85.874" cy="85.874" r="60.874" stroke="url(#paint1_linear_1_352)" stroke-width="1.47186" stroke-linecap="round"/>
</g>
</g>
<ellipse cx="86.0072" cy="86.0106" rx="43.2533" ry="43.2533" fill="url(#paint2_linear_1_352)"/>
<path d="M62.2812 105.48L77.2361 98.7158C78.4802 99.529 79.8726 100.089 81.3334 100.363C82.7942 100.638 84.2948 100.621 85.7492 100.315L98.827 97.5675" stroke="white" stroke-width="2" stroke-linecap="round" stroke-linejoin="round"/>
<path d="M86.2549 70.9857L89.5917 64.4534C89.6359 64.3651 89.6778 64.2746 89.7132 64.1818C90.0067 63.4526 90.0382 62.6443 89.8024 61.8944C89.5665 61.1446 89.0779 60.4998 88.4199 60.07C87.7618 59.6401 86.975 59.4518 86.1936 59.5372C85.4122 59.6225 84.6847 59.9763 84.1349 60.5381L73.9589 70.9172C72.7284 72.1788 71.7624 73.6736 71.1177 75.3138C70.473 76.954 70.1626 78.7064 70.2048 80.4683L70.176 80.4197L62.2812 84.2666" stroke="white" stroke-width="2" stroke-linecap="round" stroke-linejoin="round"/>
<path d="M98.1575 96.9822C95.834 97.9724 93.2885 98.3253 90.7832 98.0046C88.278 97.6839 85.9035 96.7012 83.9043 95.1577C81.9051 93.6141 80.3534 91.5656 79.4092 89.223C78.4649 86.8804 78.1622 84.3285 78.5322 81.83C78.9021 79.3316 79.9314 76.9768 81.5139 75.0084C83.0965 73.04 85.1752 71.529 87.5359 70.631C89.8966 69.7331 92.454 69.4806 94.9447 69.8997C97.4354 70.3187 99.7694 71.3942 101.706 73.0152" stroke="white" stroke-width="2" stroke-linecap="round" stroke-linejoin="round"/>
<path d="M92.773 83.3767L88.1797 77.0719" stroke="white" stroke-width="2" stroke-linecap="round" stroke-linejoin="round"/>
<path d="M97.0156 70.4094L99.6237 63.4288" stroke="white" stroke-width="2" stroke-linecap="round" stroke-linejoin="round"/>
<path d="M97.3555 62.583L102.247 64.4093" stroke="white" stroke-width="2" stroke-linecap="round" stroke-linejoin="round"/>
<path d="M107.406 78.2423H104.516C102.686 78.2423 101.203 79.7254 101.203 81.5548C101.203 83.3843 102.686 84.8673 104.516 84.8673H107.406C109.236 84.8673 110.719 83.3843 110.719 81.5548C110.719 79.7254 109.236 78.2423 107.406 78.2423Z" stroke="white" stroke-width="2" stroke-linecap="round" stroke-linejoin="round"/>
<path d="M107.406 71.6173H104.516C102.686 71.6173 101.203 73.1004 101.203 74.9298C101.203 76.7593 102.686 78.2423 104.516 78.2423H107.406C109.236 78.2423 110.719 76.7593 110.719 74.9298C110.719 73.1004 109.236 71.6173 107.406 71.6173Z" stroke="white" stroke-width="2" stroke-linecap="round" stroke-linejoin="round"/>
<path d="M107.406 84.8673H104.516C102.686 84.8673 101.203 86.3504 101.203 88.1798C101.203 90.0093 102.686 91.4923 104.516 91.4923H107.406C109.236 91.4923 110.719 90.0093 110.719 88.1798C110.719 86.3504 109.236 84.8673 107.406 84.8673Z" stroke="white" stroke-width="2" stroke-linecap="round" stroke-linejoin="round"/>
<path d="M103.405 91.4923H100.649C98.8191 91.4923 97.3361 92.9754 97.3361 94.8048C97.3361 96.6343 98.8191 98.1173 100.649 98.1173H103.405C105.234 98.1173 106.717 96.6343 106.717 94.8048C106.717 92.9754 105.234 91.4923 103.405 91.4923Z" stroke="white" stroke-width="2" stroke-linecap="round" stroke-linejoin="round"/>
<g filter="url(#filter2_d_1_352)">
<circle cx="118" cy="125" r="22" fill="white"/>
<circle cx="118" cy="125" r="21.6756" stroke="#2CB2E1" stroke-width="0.648829"/>
</g>
<path d="M135.275 124.947C135.275 134.46 127.563 142.173 118.05 142.173C108.536 142.173 100.824 134.46 100.824 124.947C100.824 115.433 108.536 107.721 118.05 107.721C127.563 107.721 135.275 115.433 135.275 124.947Z" fill="#2CB2E1" stroke="#2CB2E1" stroke-width="0.257139"/>
<g clip-path="url(#clip0_1_352)">
<path d="M119.138 128.125H111.223" stroke="white" stroke-width="1.25052" stroke-linecap="round" stroke-linejoin="round"/>
<path d="M124.088 121.198H116.172" stroke="white" stroke-width="1.25052" stroke-linecap="round" stroke-linejoin="round"/>
<path d="M121.121 124.167L124.089 121.198L121.121 118.23" stroke="white" stroke-width="1.25052" stroke-linecap="round" stroke-linejoin="round"/>
<path d="M114.191 131.093L111.223 128.124L114.191 125.156" stroke="white" stroke-width="1.25052" stroke-linecap="round" stroke-linejoin="round"/>
<path d="M106.277 124.661C106.277 126.156 106.572 127.635 107.143 129.016C107.715 130.396 108.553 131.651 109.61 132.707C110.667 133.764 111.921 134.602 113.302 135.174C114.682 135.746 116.162 136.04 117.656 136.04C119.15 136.04 120.63 135.746 122.011 135.174C123.391 134.602 124.645 133.764 125.702 132.707C126.759 131.651 127.597 130.396 128.169 129.016C128.741 127.635 129.035 126.156 129.035 124.661C129.035 123.167 128.741 121.688 128.169 120.307C127.597 118.926 126.759 117.672 125.702 116.615C124.645 115.559 123.391 114.721 122.011 114.149C120.63 113.577 119.15 113.283 117.656 113.283C116.162 113.283 114.682 113.577 113.302 114.149C111.921 114.721 110.667 115.559 109.61 116.615C108.553 117.672 107.715 118.926 107.143 120.307C106.572 121.688 106.277 123.167 106.277 124.661Z" stroke="white" stroke-width="1.25052" stroke-linecap="round" stroke-linejoin="round"/>
</g>
<defs>
<filter id="filter0_d_1_352" x="12.5524" y="12.5524" width="151.395" height="151.395" filterUnits="userSpaceOnUse" color-interpolation-filters="sRGB">
<feFlood flood-opacity="0" result="BackgroundImageFix"/>
<feColorMatrix in="SourceAlpha" type="matrix" values="0 0 0 0 0 0 0 0 0 0 0 0 0 0 0 0 0 0 127 0" result="hardAlpha"/>
<feOffset dx="2.37618" dy="2.37618"/>
<feGaussianBlur stdDeviation="7.04391"/>
<feComposite in2="hardAlpha" operator="out"/>
<feColorMatrix type="matrix" values="0 0 0 0 0 0 0 0 0 0.294118 0 0 0 0 0.447059 0 0 0 0.15 0"/>
<feBlend mode="normal" in2="BackgroundImageFix" result="effect1_dropShadow_1_352"/>
<feBlend mode="normal" in="SourceGraphic" in2="effect1_dropShadow_1_352" result="shape"/>
</filter>
<filter id="filter1_d_1_352" x="22.5819" y="23.423" width="126.584" height="126.584" filterUnits="userSpaceOnUse" color-interpolation-filters="sRGB">
<feFlood flood-opacity="0" result="BackgroundImageFix"/>
<feColorMatrix in="SourceAlpha" type="matrix" values="0 0 0 0 0 0 0 0 0 0 0 0 0 0 0 0 0 0 127 0" result="hardAlpha"/>
<feOffset dy="0.841064"/>
<feGaussianBlur stdDeviation="0.841064"/>
<feComposite in2="hardAlpha" operator="out"/>
<feColorMatrix type="matrix" values="0 0 0 0 0.0509804 0 0 0 0 0.364706 0 0 0 0 0.501961 0 0 0 1 0"/>
<feBlend mode="normal" in2="BackgroundImageFix" result="effect1_dropShadow_1_352"/>
<feBlend mode="normal" in="SourceGraphic" in2="effect1_dropShadow_1_352" result="shape"/>
</filter>
<filter id="filter2_d_1_352" x="86.9652" y="93.9652" width="65.7358" height="65.7358" filterUnits="userSpaceOnUse" color-interpolation-filters="sRGB">
<feFlood flood-opacity="0" result="BackgroundImageFix"/>
<feColorMatrix in="SourceAlpha" type="matrix" values="0 0 0 0 0 0 0 0 0 0 0 0 0 0 0 0 0 0 127 0" result="hardAlpha"/>
<feOffset dx="1.83308" dy="1.83308"/>
<feGaussianBlur stdDeviation="5.43395"/>
<feComposite in2="hardAlpha" operator="out"/>
<feColorMatrix type="matrix" values="0 0 0 0 0 0 0 0 0 0.294118 0 0 0 0 0.447059 0 0 0 0.2 0"/>
<feBlend mode="normal" in2="BackgroundImageFix" result="effect1_dropShadow_1_352"/>
<feBlend mode="normal" in="SourceGraphic" in2="effect1_dropShadow_1_352" result="shape"/>
</filter>
<linearGradient id="paint0_linear_1_352" x1="86" y1="167.541" x2="-0.407311" y2="33.6886" gradientUnits="userSpaceOnUse">
<stop stop-color="#4B85B3"/>
<stop offset="1" stop-color="#00B9AB"/>
</linearGradient>
<linearGradient id="paint1_linear_1_352" x1="85.874" y1="143.591" x2="24.7117" y2="48.846" gradientUnits="userSpaceOnUse">
<stop stop-color="#4B85B3"/>
<stop offset="1" stop-color="#00B9AB"/>
</linearGradient>
<linearGradient id="paint2_linear_1_352" x1="86.0072" y1="127.021" x2="42.549" y2="59.7008" gradientUnits="userSpaceOnUse">
<stop stop-color="#4B85B3"/>
<stop offset="1" stop-color="#00B9AB"/>
</linearGradient>
<clipPath id="clip0_1_352">
<rect width="23.747" height="23.747" fill="white" transform="translate(105.785 112.788)"/>
</clipPath>
</defs>
</svg>
