<svg width="187" height="189" viewBox="0 0 187 189" fill="none" xmlns="http://www.w3.org/2000/svg">
<path d="M54.9005 40.1997H132.096C132.096 40.1997 136.108 40.1997 136.108 44.2117V88.344C136.108 88.344 136.108 92.3561 132.096 92.3561H54.9005C54.9005 92.3561 50.8884 92.3561 50.8884 88.344V44.2117C50.8884 44.2117 50.8884 40.1997 54.9005 40.1997Z" stroke="white" stroke-width="4.01203" stroke-linecap="round" stroke-linejoin="round"/>
<path d="M60.9189 32.1404L62.0503 25.4845C62.1387 24.9649 62.3286 24.4679 62.6092 24.0218C62.8897 23.5757 63.2554 23.1892 63.6854 22.8844C64.1153 22.5796 64.6011 22.3626 65.115 22.2456C65.6288 22.1286 66.1607 22.114 66.6802 22.2026L120.558 31.3741" stroke="white" stroke-width="4.01203" stroke-linecap="round" stroke-linejoin="round"/>
<path d="M72.4294 13.4524L74.937 6.70818C75.3077 5.71147 76.0589 4.90271 77.0256 4.45961C77.9923 4.01651 79.0954 3.97532 80.0924 4.34509L119.944 19.1615" stroke="white" stroke-width="4.01203" stroke-linecap="round" stroke-linejoin="round"/>
<path d="M93.0186 50.2305L103.049 60.2605L93.0186 70.2906L82.9885 60.2605L93.0186 50.2305Z" stroke="white" stroke-width="4.01203" stroke-linecap="round" stroke-linejoin="round"/>
<path d="M70.9484 80.3208H117.087" stroke="white" stroke-width="4.01203" stroke-linecap="round" stroke-linejoin="round"/>
<path d="M1.90626 140.634V120.598H11.9527C13.2694 120.598 14.4238 120.865 15.4161 121.4C16.4274 121.934 17.2193 122.678 17.7917 123.632C18.3642 124.567 18.6504 125.655 18.6504 126.895C18.6504 128.078 18.3642 129.137 17.7917 130.072C17.2193 131.007 16.4274 131.742 15.4161 132.276C14.4047 132.81 13.2503 133.077 11.9527 133.077H6.05651V140.634H1.90626ZM6.05651 129.643H11.4948C12.3916 129.643 13.1072 129.395 13.6415 128.899C14.1948 128.402 14.4715 127.744 14.4715 126.924C14.4715 126.084 14.1948 125.416 13.6415 124.92C13.1072 124.424 12.3916 124.176 11.4948 124.176H6.05651V129.643ZM21.6754 140.634V125.721H25.5967V127.382C26.0737 126.733 26.6462 126.237 27.314 125.893C27.9819 125.55 28.7356 125.378 29.5752 125.378C30.3003 125.397 30.8442 125.512 31.2067 125.721V129.156C30.9205 129.023 30.6056 128.927 30.2622 128.87C29.9187 128.794 29.5657 128.755 29.2031 128.755C28.4399 128.755 27.7434 128.946 27.1137 129.328C26.484 129.71 25.9783 130.253 25.5967 130.959V140.634H21.6754ZM33.9316 140.634V125.721H37.8529V140.634H33.9316ZM35.878 123.947C35.2674 123.947 34.7426 123.727 34.3037 123.289C33.8649 122.85 33.6454 122.325 33.6454 121.714C33.6454 121.085 33.8649 120.56 34.3037 120.14C34.7426 119.701 35.2674 119.482 35.878 119.482C36.5077 119.482 37.0324 119.701 37.4522 120.14C37.8911 120.56 38.1105 121.085 38.1105 121.714C38.1105 122.325 37.8911 122.85 37.4522 123.289C37.0324 123.727 36.5077 123.947 35.878 123.947ZM46.3292 140.634L39.9464 125.721H44.2111L48.3041 135.653L52.3685 125.721H56.5474L50.136 140.634H46.3292ZM62.9998 140.891C61.9312 140.891 60.9866 140.701 60.1661 140.319C59.3456 139.918 58.7064 139.374 58.2484 138.687C57.7905 138.001 57.5615 137.209 57.5615 136.312C57.5615 134.881 58.0958 133.774 59.1644 132.992C60.252 132.19 61.7404 131.789 63.6295 131.789C64.927 131.789 66.1482 131.99 67.2931 132.391V131.303C67.2931 130.444 67.026 129.795 66.4917 129.357C65.9574 128.918 65.1751 128.698 64.1447 128.698C63.515 128.698 62.8376 128.803 62.1125 129.013C61.3874 129.204 60.5478 129.509 59.5937 129.929L58.1626 127.038C59.3456 126.504 60.4714 126.103 61.54 125.836C62.6277 125.569 63.7153 125.435 64.803 125.435C66.8065 125.435 68.3617 125.922 69.4684 126.895C70.5942 127.849 71.1572 129.204 71.1572 130.959V140.634H67.2931V139.575C66.6825 140.033 66.0242 140.367 65.3182 140.577C64.6122 140.786 63.8394 140.891 62.9998 140.891ZM61.2824 136.226C61.2824 136.798 61.5305 137.256 62.0266 137.6C62.5227 137.924 63.181 138.086 64.0015 138.086C64.6503 138.086 65.2514 138.01 65.8048 137.857C66.3581 137.686 66.8542 137.438 67.2931 137.113V134.938C66.8161 134.747 66.32 134.604 65.8048 134.509C65.2896 134.413 64.7362 134.365 64.1447 134.365C63.2478 134.365 62.5418 134.537 62.0266 134.881C61.5305 135.205 61.2824 135.653 61.2824 136.226ZM81.3479 140.863C79.6878 140.863 78.4284 140.491 77.5697 139.746C76.7301 138.983 76.3103 137.876 76.3103 136.426V128.984H73.2477V125.721H76.3103V121.915L80.2316 121.027V125.721H84.4963V128.984H80.2316V135.625C80.2316 136.312 80.3842 136.808 80.6895 137.113C80.9949 137.399 81.5291 137.543 82.2924 137.543C82.674 137.543 83.0175 137.523 83.3228 137.485C83.6472 137.428 84.0002 137.333 84.3818 137.199V140.433C83.9811 140.567 83.4755 140.672 82.8649 140.748C82.2733 140.825 81.7677 140.863 81.3479 140.863ZM94.1126 140.92C92.6242 140.92 91.2694 140.577 90.0482 139.89C88.8461 139.203 87.892 138.277 87.186 137.113C86.4799 135.949 86.1269 134.642 86.1269 133.192C86.1269 131.742 86.4609 130.435 87.1287 129.271C87.8156 128.107 88.7411 127.181 89.9051 126.494C91.0691 125.807 92.3666 125.464 93.7977 125.464C95.2289 125.464 96.4978 125.817 97.6045 126.523C98.7113 127.229 99.5795 128.183 100.209 129.385C100.858 130.587 101.182 131.952 101.182 133.478V134.509H90.1341C90.3058 135.1 90.5825 135.634 90.9641 136.111C91.3648 136.588 91.8514 136.961 92.4239 137.228C93.0154 137.495 93.6451 137.628 94.3129 137.628C94.9808 137.628 95.5914 137.523 96.1448 137.314C96.7172 137.104 97.2038 136.808 97.6045 136.426L100.181 138.773C99.2646 139.518 98.3201 140.061 97.3469 140.405C96.3928 140.748 95.3147 140.92 94.1126 140.92ZM90.0768 131.704H97.3183C97.1847 131.112 96.9367 130.597 96.5741 130.158C96.2306 129.7 95.8109 129.347 95.3147 129.099C94.8377 128.832 94.3034 128.698 93.7119 128.698C93.1013 128.698 92.5479 128.822 92.0518 129.07C91.5556 129.318 91.1359 129.671 90.7924 130.129C90.468 130.568 90.2295 131.093 90.0768 131.704ZM110.745 140.634V120.598H114.896V136.97H125.858V140.634H110.745ZM133.784 140.891C132.716 140.891 131.771 140.701 130.951 140.319C130.13 139.918 129.491 139.374 129.033 138.687C128.575 138.001 128.346 137.209 128.346 136.312C128.346 134.881 128.88 133.774 129.949 132.992C131.037 132.19 132.525 131.789 134.414 131.789C135.712 131.789 136.933 131.99 138.078 132.391V131.303C138.078 130.444 137.811 129.795 137.276 129.357C136.742 128.918 135.96 128.698 134.929 128.698C134.3 128.698 133.622 128.803 132.897 129.013C132.172 129.204 131.332 129.509 130.378 129.929L128.947 127.038C130.13 126.504 131.256 126.103 132.325 125.836C133.412 125.569 134.5 125.435 135.588 125.435C137.591 125.435 139.146 125.922 140.253 126.895C141.379 127.849 141.942 129.204 141.942 130.959V140.634H138.078V139.575C137.467 140.033 136.809 140.367 136.103 140.577C135.397 140.786 134.624 140.891 133.784 140.891ZM132.067 136.226C132.067 136.798 132.315 137.256 132.811 137.6C133.307 137.924 133.966 138.086 134.786 138.086C135.435 138.086 136.036 138.01 136.589 137.857C137.143 137.686 137.639 137.438 138.078 137.113V134.938C137.601 134.747 137.105 134.604 136.589 134.509C136.074 134.413 135.521 134.365 134.929 134.365C134.032 134.365 133.326 134.537 132.811 134.881C132.315 135.205 132.067 135.653 132.067 136.226ZM145.482 140.634V120.598L149.403 119.94V126.924C150.586 125.989 151.979 125.521 153.582 125.521C154.994 125.521 156.273 125.865 157.418 126.552C158.563 127.238 159.469 128.164 160.137 129.328C160.824 130.473 161.167 131.761 161.167 133.192C161.167 134.623 160.824 135.921 160.137 137.085C159.45 138.23 158.524 139.145 157.36 139.832C156.196 140.5 154.899 140.834 153.468 140.834C152.724 140.834 151.998 140.729 151.292 140.519C150.586 140.309 149.938 140.004 149.346 139.603V140.634H145.482ZM152.953 137.514C153.773 137.514 154.508 137.323 155.156 136.941C155.824 136.56 156.349 136.045 156.731 135.396C157.112 134.747 157.303 134.012 157.303 133.192C157.303 132.371 157.112 131.637 156.731 130.988C156.349 130.32 155.824 129.805 155.156 129.442C154.508 129.061 153.773 128.87 152.953 128.87C152.227 128.87 151.56 128.994 150.949 129.242C150.357 129.471 149.842 129.824 149.403 130.301V136.111C149.823 136.55 150.338 136.894 150.949 137.142C151.579 137.39 152.246 137.514 152.953 137.514ZM171.41 140.92C169.922 140.92 168.567 140.577 167.346 139.89C166.143 139.203 165.189 138.277 164.483 137.113C163.777 135.949 163.424 134.642 163.424 133.192C163.424 131.742 163.758 130.435 164.426 129.271C165.113 128.107 166.038 127.181 167.202 126.494C168.366 125.807 169.664 125.464 171.095 125.464C172.526 125.464 173.795 125.817 174.902 126.523C176.009 127.229 176.877 128.183 177.507 129.385C178.155 130.587 178.48 131.952 178.48 133.478V134.509H167.431C167.603 135.1 167.88 135.634 168.261 136.111C168.662 136.588 169.149 136.961 169.721 137.228C170.313 137.495 170.942 137.628 171.61 137.628C172.278 137.628 172.889 137.523 173.442 137.314C174.015 137.104 174.501 136.808 174.902 136.426L177.478 138.773C176.562 139.518 175.617 140.061 174.644 140.405C173.69 140.748 172.612 140.92 171.41 140.92ZM167.374 131.704H174.616C174.482 131.112 174.234 130.597 173.871 130.158C173.528 129.7 173.108 129.347 172.612 129.099C172.135 128.832 171.601 128.698 171.009 128.698C170.399 128.698 169.845 128.822 169.349 129.07C168.853 129.318 168.433 129.671 168.09 130.129C167.765 130.568 167.527 131.093 167.374 131.704ZM181.455 140.634V120.598L185.376 119.94V140.634H181.455ZM64.216 178.92C62.7276 178.92 61.3347 178.662 60.0371 178.147C58.7396 177.613 57.6042 176.878 56.631 175.943C55.677 175.008 54.9232 173.921 54.3699 172.68C53.8356 171.421 53.5684 170.066 53.5684 168.616C53.5684 167.147 53.8356 165.792 54.3699 164.552C54.9232 163.292 55.6865 162.195 56.6597 161.26C57.6328 160.325 58.7586 159.6 60.0371 159.085C61.3347 158.55 62.7276 158.283 64.216 158.283C65.3227 158.283 66.3913 158.436 67.4217 158.741C68.4521 159.046 69.4062 159.476 70.284 160.029C71.1808 160.583 71.9441 161.25 72.5737 162.033L69.7687 164.809C69.0436 163.912 68.2041 163.235 67.25 162.777C66.315 162.319 65.3036 162.09 64.216 162.09C63.3192 162.09 62.4796 162.262 61.6972 162.605C60.9149 162.93 60.2375 163.388 59.665 163.979C59.0926 164.552 58.6442 165.238 58.3198 166.04C57.9954 166.822 57.8332 167.681 57.8332 168.616C57.8332 169.532 57.9954 170.391 58.3198 171.192C58.6442 171.974 59.1021 172.661 59.6936 173.253C60.2852 173.825 60.9721 174.274 61.7545 174.598C62.5559 174.922 63.4241 175.085 64.3591 175.085C65.4086 175.085 66.3913 174.865 67.3072 174.426C68.2231 173.987 69.0341 173.358 69.7401 172.537L72.4593 175.228C71.8296 175.991 71.0758 176.649 70.1981 177.203C69.3203 177.756 68.3662 178.185 67.3358 178.491C66.3245 178.777 65.2846 178.92 64.216 178.92ZM79.9519 178.891C78.8833 178.891 77.9387 178.701 77.1182 178.319C76.2977 177.918 75.6585 177.374 75.2005 176.687C74.7426 176.001 74.5136 175.209 74.5136 174.312C74.5136 172.881 75.0479 171.774 76.1164 170.992C77.2041 170.19 78.6925 169.789 80.5815 169.789C81.8791 169.789 83.1003 169.99 84.2452 170.391V169.303C84.2452 168.444 83.9781 167.795 83.4438 167.357C82.9095 166.918 82.1272 166.698 81.0968 166.698C80.4671 166.698 79.7897 166.803 79.0646 167.013C78.3395 167.204 77.4999 167.509 76.5458 167.929L75.1147 165.038C76.2977 164.504 77.4235 164.103 78.4921 163.836C79.5798 163.569 80.6674 163.435 81.7551 163.435C83.7586 163.435 85.3138 163.922 86.4205 164.895C87.5463 165.849 88.1093 167.204 88.1093 168.959V178.634H84.2452V177.575C83.6346 178.033 82.9763 178.367 82.2703 178.577C81.5643 178.786 80.7914 178.891 79.9519 178.891ZM78.2345 174.226C78.2345 174.798 78.4826 175.256 78.9787 175.6C79.4748 175.924 80.1331 176.086 80.9536 176.086C81.6024 176.086 82.2035 176.01 82.7569 175.857C83.3102 175.686 83.8063 175.438 84.2452 175.113V172.938C83.7682 172.747 83.2721 172.604 82.7569 172.509C82.2417 172.413 81.6883 172.365 81.0968 172.365C80.1999 172.365 79.4939 172.537 78.9787 172.881C78.4826 173.205 78.2345 173.653 78.2345 174.226ZM91.6495 178.634V163.721H95.5708V165.382C96.0478 164.733 96.6203 164.237 97.2881 163.893C97.956 163.55 98.7097 163.378 99.5493 163.378C100.274 163.397 100.818 163.512 101.181 163.721V167.156C100.895 167.023 100.58 166.927 100.236 166.87C99.8928 166.794 99.5397 166.755 99.1772 166.755C98.4139 166.755 97.7175 166.946 97.0878 167.328C96.4581 167.71 95.9524 168.253 95.5708 168.959V178.634H91.6495ZM110.217 178.834C108.805 178.834 107.526 178.491 106.381 177.804C105.236 177.117 104.321 176.201 103.634 175.056C102.966 173.892 102.632 172.594 102.632 171.163C102.632 169.732 102.966 168.444 103.634 167.299C104.321 166.135 105.246 165.219 106.41 164.552C107.574 163.865 108.881 163.521 110.331 163.521C111.075 163.521 111.791 163.626 112.478 163.836C113.165 164.027 113.804 164.313 114.396 164.695V158.598L118.317 157.94V178.634H114.453V177.403C113.232 178.357 111.82 178.834 110.217 178.834ZM110.846 175.485C111.572 175.485 112.23 175.371 112.821 175.142C113.432 174.894 113.957 174.531 114.396 174.054V168.244C113.957 167.805 113.432 167.461 112.821 167.213C112.211 166.965 111.552 166.841 110.846 166.841C110.026 166.841 109.282 167.032 108.614 167.414C107.965 167.776 107.45 168.292 107.068 168.959C106.687 169.608 106.496 170.343 106.496 171.163C106.496 171.984 106.687 172.718 107.068 173.367C107.45 174.016 107.965 174.531 108.614 174.913C109.282 175.295 110.026 175.485 110.846 175.485ZM127.529 178.92C126.155 178.92 124.886 178.748 123.723 178.405C122.559 178.042 121.547 177.527 120.689 176.859L122.635 174.255C123.494 174.827 124.314 175.256 125.096 175.543C125.898 175.829 126.69 175.972 127.472 175.972C128.35 175.972 129.046 175.829 129.561 175.543C130.096 175.237 130.363 174.846 130.363 174.369C130.363 173.987 130.21 173.682 129.905 173.453C129.619 173.224 129.151 173.062 128.502 172.967L125.64 172.537C124.152 172.308 123.026 171.831 122.263 171.106C121.499 170.362 121.118 169.389 121.118 168.187C121.118 167.213 121.366 166.383 121.862 165.696C122.377 164.99 123.093 164.447 124.009 164.065C124.944 163.664 126.05 163.464 127.329 163.464C128.417 163.464 129.476 163.617 130.506 163.922C131.556 164.227 132.538 164.695 133.454 165.324L131.565 167.872C130.745 167.357 129.962 166.984 129.218 166.755C128.474 166.526 127.72 166.412 126.957 166.412C126.251 166.412 125.678 166.546 125.24 166.813C124.82 167.08 124.61 167.433 124.61 167.872C124.61 168.272 124.762 168.587 125.068 168.816C125.373 169.045 125.898 169.207 126.642 169.303L129.476 169.732C130.964 169.942 132.099 170.419 132.882 171.163C133.664 171.888 134.055 172.833 134.055 173.997C134.055 174.951 133.769 175.8 133.197 176.544C132.624 177.269 131.851 177.851 130.878 178.29C129.905 178.71 128.789 178.92 127.529 178.92Z" fill="white"/>
</svg>
