<svg width="273" height="507" viewBox="0 0 273 507" fill="none" xmlns="http://www.w3.org/2000/svg">
<path d="M118.701 1.74702L98.9895 49.2138H86.1261L76.4272 11.3331C75.8374 9.0005 75.3356 8.147 73.5363 7.16434C70.6103 5.56118 65.7821 4.05932 61.5336 3.12731L61.8222 1.74702H82.5251C85.1625 1.74702 87.544 3.51987 88.1337 6.5869L93.258 34.0584L105.921 1.74702H118.701ZM169.093 33.7165C169.143 21.1901 151.929 20.4987 152.047 14.9016C152.082 13.1996 153.69 11.3888 157.206 10.9253C158.95 10.6948 163.753 10.5201 169.201 13.0502L171.339 2.98548C167.699 1.60718 163.844 0.894505 159.956 0.880859C147.931 0.880859 139.469 7.33403 139.397 16.5832C139.319 23.4214 145.439 27.2203 150.047 29.4997C154.789 31.8247 156.38 33.3189 156.363 35.3982C156.328 38.5817 152.581 39.9874 149.086 40.0431C142.97 40.1393 139.422 38.3741 136.594 37.047L134.388 47.446C137.231 48.7604 142.478 49.9102 147.919 49.9786C160.699 49.9786 169.061 43.6065 169.101 33.7393M200.855 49.2366H212.1L202.278 1.74702H191.892C190.782 1.73714 189.696 2.06385 188.772 2.68479C187.849 3.30573 187.132 4.19226 186.715 5.2294L168.458 49.2138H181.234L183.771 42.1224H199.382L200.855 49.2366ZM187.279 32.4173L193.683 14.5976L197.37 32.4173H187.279ZM136.087 1.77235L126.026 49.2138H113.858L123.921 1.74702L136.087 1.77235Z" fill="white"/>
<path d="M136.819 128.196C136.313 128.592 135.82 129 135.336 129.421C127.081 136.604 121.858 147.175 121.858 158.978C121.858 170.777 127.081 181.348 135.336 188.531C135.82 188.952 136.313 189.36 136.819 189.76C137.321 189.36 137.818 188.952 138.302 188.531C146.553 181.348 151.781 170.777 151.781 158.978C151.781 147.175 146.553 136.604 138.302 129.421C137.818 129 137.321 128.592 136.819 128.196ZM161.025 119.806C153.009 119.806 145.549 122.216 139.344 126.352C139.658 126.611 139.981 126.866 140.287 127.134C149.519 135.163 154.811 146.771 154.811 158.978C154.811 171.181 149.519 182.789 140.292 190.818C139.981 191.081 139.658 191.341 139.344 191.6C145.549 195.736 153.009 198.15 161.025 198.15C182.66 198.15 200.197 180.608 200.197 158.978C200.197 137.343 182.66 119.806 161.025 119.806ZM133.346 190.818C133.653 191.081 133.976 191.341 134.294 191.6C128.084 195.736 120.629 198.15 112.609 198.15C90.974 198.15 73.4368 180.608 73.4368 158.978C73.4368 137.343 90.974 119.806 112.609 119.806C120.629 119.806 128.084 122.216 134.294 126.352C133.976 126.611 133.653 126.866 133.346 127.134C124.119 135.163 118.827 146.771 118.827 158.978C118.827 171.185 124.119 182.789 133.346 190.818ZM198.973 183.248V181.731H198.573L198.119 182.776L197.66 181.731H197.264V183.248H197.545V182.105L197.974 183.091H198.263L198.692 182.1V183.248H198.973ZM196.457 183.248V181.99H196.967V181.731H195.67V181.99H196.18V183.248H196.457ZM197.681 217.069V217.324H197.919C197.97 217.324 198.017 217.315 198.046 217.294C198.08 217.273 198.093 217.239 198.093 217.196C198.093 217.154 198.08 217.12 198.046 217.098C198.017 217.081 197.97 217.069 197.919 217.069H197.681ZM197.919 216.89C198.042 216.89 198.14 216.916 198.204 216.971C198.272 217.026 198.306 217.098 198.306 217.196C198.306 217.273 198.28 217.341 198.225 217.392C198.17 217.443 198.097 217.472 198 217.485L198.314 217.851H198.068L197.774 217.489H197.681V217.851H197.477V216.89H197.919ZM197.859 218.178C197.97 218.178 198.076 218.157 198.17 218.114C198.267 218.072 198.352 218.016 198.425 217.944C198.497 217.872 198.552 217.783 198.595 217.685C198.637 217.587 198.658 217.485 198.658 217.37C198.658 217.26 198.637 217.158 198.595 217.06C198.552 216.962 198.497 216.873 198.425 216.801C198.352 216.729 198.267 216.673 198.17 216.631C198.076 216.588 197.97 216.567 197.859 216.567C197.745 216.567 197.638 216.588 197.541 216.631C197.443 216.673 197.358 216.729 197.286 216.801C197.213 216.873 197.154 216.962 197.111 217.06C197.073 217.158 197.052 217.26 197.052 217.37C197.052 217.485 197.073 217.587 197.111 217.685C197.154 217.783 197.213 217.872 197.286 217.944C197.358 218.016 197.443 218.072 197.541 218.114C197.638 218.157 197.745 218.178 197.859 218.178ZM197.859 216.338C198.004 216.338 198.14 216.367 198.267 216.418C198.395 216.474 198.51 216.546 198.603 216.644C198.697 216.737 198.773 216.843 198.829 216.971C198.884 217.098 198.909 217.23 198.909 217.37C198.909 217.515 198.884 217.647 198.829 217.774C198.773 217.897 198.697 218.008 198.603 218.101C198.51 218.195 198.395 218.267 198.267 218.322C198.14 218.378 198.004 218.407 197.859 218.407C197.711 218.407 197.57 218.378 197.443 218.322C197.311 218.267 197.201 218.195 197.107 218.101C197.014 218.008 196.937 217.897 196.882 217.774C196.827 217.647 196.801 217.515 196.801 217.37C196.801 217.23 196.827 217.098 196.882 216.971C196.937 216.843 197.014 216.737 197.107 216.644C197.201 216.546 197.311 216.474 197.443 216.418C197.57 216.367 197.711 216.338 197.859 216.338ZM100.826 212.644C100.826 210.816 102.025 209.316 103.98 209.316C105.855 209.316 107.117 210.752 107.117 212.644C107.117 214.54 105.855 215.976 103.98 215.976C102.025 215.976 100.826 214.472 100.826 212.644ZM109.247 212.644V207.446H106.985V208.708C106.267 207.773 105.179 207.182 103.7 207.182C100.784 207.182 98.4973 209.469 98.4973 212.644C98.4973 215.823 100.784 218.106 103.7 218.106C105.179 218.106 106.267 217.519 106.985 216.584V217.846H109.247V212.644ZM185.665 212.644C185.665 210.816 186.864 209.316 188.823 209.316C190.693 209.316 191.956 210.752 191.956 212.644C191.956 214.54 190.693 215.976 188.823 215.976C186.864 215.976 185.665 214.472 185.665 212.644ZM194.085 212.644V203.267H191.824V208.708C191.105 207.773 190.017 207.182 188.538 207.182C185.622 207.182 183.336 209.469 183.336 212.644C183.336 215.823 185.622 218.106 188.538 218.106C190.017 218.106 191.105 217.519 191.824 216.584V217.846H194.085V212.644ZM137.316 209.21C138.774 209.21 139.709 210.123 139.952 211.73H134.554C134.792 210.23 135.705 209.21 137.316 209.21ZM137.363 207.182C134.316 207.182 132.182 209.405 132.182 212.644C132.182 215.955 134.401 218.106 137.512 218.106C139.08 218.106 140.517 217.715 141.779 216.648L140.67 214.973C139.799 215.67 138.689 216.061 137.644 216.061C136.186 216.061 134.86 215.385 134.532 213.515H142.255C142.277 213.235 142.302 212.95 142.302 212.644C142.277 209.405 140.275 207.182 137.363 207.182ZM164.668 212.644C164.668 210.816 165.866 209.316 167.822 209.316C169.696 209.316 170.958 210.752 170.958 212.644C170.958 214.54 169.696 215.976 167.822 215.976C165.866 215.976 164.668 214.472 164.668 212.644ZM173.088 212.644V207.446H170.827V208.708C170.108 207.773 169.02 207.182 167.541 207.182C164.625 207.182 162.339 209.469 162.339 212.644C162.339 215.823 164.625 218.106 167.541 218.106C169.02 218.106 170.108 217.519 170.827 216.584V217.846H173.088V212.644ZM151.895 212.644C151.895 215.802 154.093 218.106 157.446 218.106C159.011 218.106 160.056 217.761 161.187 216.869L160.099 215.041C159.253 215.649 158.36 215.976 157.378 215.976C155.572 215.955 154.246 214.646 154.246 212.644C154.246 210.642 155.572 209.337 157.378 209.316C158.36 209.316 159.253 209.643 160.099 210.251L161.187 208.423C160.056 207.531 159.011 207.182 157.446 207.182C154.093 207.182 151.895 209.49 151.895 212.644ZM181.053 207.182C179.748 207.182 178.898 207.794 178.312 208.708V207.446H176.072V217.846H178.333V212.015C178.333 210.298 179.073 209.337 180.552 209.337C181.011 209.337 181.487 209.405 181.967 209.601L182.664 207.467C182.163 207.271 181.508 207.182 181.053 207.182ZM120.434 208.27C119.346 207.552 117.841 207.182 116.188 207.182C113.557 207.182 111.861 208.444 111.861 210.514C111.861 212.21 113.119 213.256 115.448 213.579L116.515 213.732C117.756 213.906 118.342 214.234 118.342 214.82C118.342 215.628 117.518 216.082 115.971 216.082C114.407 216.082 113.272 215.585 112.511 214.994L111.444 216.758C112.685 217.672 114.254 218.106 115.95 218.106C118.95 218.106 120.693 216.695 120.693 214.714C120.693 212.886 119.324 211.926 117.059 211.603L115.992 211.45C115.014 211.318 114.232 211.122 114.232 210.425C114.232 209.664 114.972 209.21 116.213 209.21C117.539 209.21 118.823 209.707 119.452 210.098L120.434 208.27ZM149.613 207.182C148.308 207.182 147.458 207.794 146.871 208.708V207.446H144.627V217.846H146.893V212.015C146.893 210.298 147.632 209.337 149.111 209.337C149.566 209.337 150.046 209.405 150.527 209.601L151.22 207.467C150.722 207.271 150.068 207.182 149.613 207.182ZM130.312 207.446H126.614V204.292H124.327V207.446H122.215V209.511H124.327V214.255C124.327 216.673 125.262 218.106 127.94 218.106C128.918 218.106 130.048 217.804 130.766 217.302L130.116 215.364C129.44 215.755 128.701 215.955 128.114 215.955C126.979 215.955 126.614 215.258 126.614 214.212V209.511H130.312V207.446ZM96.4953 217.846V211.318C96.4953 208.861 94.9312 207.208 92.4064 207.182C91.0803 207.161 89.7074 207.577 88.751 209.035C88.0327 207.879 86.9021 207.182 85.3125 207.182C84.2031 207.182 83.115 207.509 82.2649 208.729V207.446H80.0037V217.846H82.2861V212.079C82.2861 210.272 83.2892 209.316 84.8322 209.316C86.3368 209.316 87.0976 210.298 87.0976 212.057V217.846H89.3801V212.079C89.3801 210.272 90.4257 209.316 91.9261 209.316C93.4733 209.316 94.2128 210.298 94.2128 212.057V217.846H96.4953Z" fill="white"/>
<path d="M96.1984 303.865C96.1984 300.446 94.4076 300.663 92.6711 300.609V299.632C94.1363 299.686 95.71 299.686 97.1752 299.686C98.8033 299.686 100.974 299.632 103.796 299.632C113.672 299.632 119.045 306.252 119.045 312.982C119.045 316.78 116.82 326.277 103.307 326.277C101.354 326.277 99.563 326.223 97.7722 326.223C96.0356 326.223 94.3534 326.277 92.6711 326.277V325.246C94.9503 325.029 96.0899 324.92 96.1984 322.37V303.865ZM99.9429 321.773C99.9429 324.703 102.059 325.029 103.904 325.029C112.153 325.029 114.866 318.788 114.866 313.144C114.866 306.035 110.308 300.88 102.928 300.88C101.354 300.88 100.648 300.989 99.9429 301.043V321.773Z" fill="white"/>
<path d="M120.402 325.245H121.107C122.193 325.245 122.952 325.245 122.952 323.997V313.687C122.952 312.004 122.41 311.787 120.944 311.027V310.431C122.735 309.888 124.852 309.182 125.014 309.074C125.286 308.911 125.503 308.911 125.72 308.911C125.883 308.911 125.991 309.128 125.991 309.454V324.106C125.991 325.354 126.86 325.354 127.891 325.354H128.542V326.331C127.239 326.331 125.883 326.277 124.526 326.277C123.169 326.277 121.758 326.331 120.347 326.331V325.245H120.402ZM124.472 302.942C123.495 302.942 122.572 302.019 122.572 301.042C122.572 300.066 123.495 299.197 124.472 299.197C125.449 299.197 126.317 300.011 126.317 301.042C126.317 302.073 125.503 302.942 124.472 302.942Z" fill="white"/>
<path d="M132.177 313.904C132.177 312.493 131.743 312.113 129.952 311.408V310.702C131.58 310.159 133.154 309.671 134.999 308.857C135.108 308.857 135.216 308.911 135.216 309.237V311.679C137.387 310.105 139.286 308.803 141.837 308.803C145.093 308.803 146.233 311.19 146.233 314.121V323.943C146.233 325.191 147.101 325.191 148.132 325.191H148.837V326.168C147.481 326.168 146.178 326.114 144.822 326.114C143.465 326.114 142.054 326.168 140.697 326.168V325.246H141.403C142.488 325.246 143.248 325.246 143.248 323.998V314.121C143.248 311.95 141.891 310.865 139.721 310.865C138.472 310.865 136.573 311.842 135.271 312.71V323.998C135.271 325.246 136.139 325.246 137.17 325.246H137.875V326.222C136.519 326.222 135.216 326.168 133.805 326.168C132.449 326.168 131.038 326.222 129.681 326.222V325.246H130.387C131.472 325.246 132.232 325.246 132.232 323.998V313.904H132.177Z" fill="white"/>
<path d="M151.714 315.75C151.659 316.075 151.659 316.672 151.714 317.975C151.931 321.611 154.264 324.595 157.303 324.595C159.419 324.595 161.047 323.456 162.458 322.045L163.001 322.587C161.265 324.921 159.094 326.875 155.946 326.875C149.868 326.875 148.675 321.014 148.675 318.572C148.675 311.083 153.721 308.858 156.38 308.858C159.474 308.858 162.784 310.812 162.838 314.827C162.838 315.044 162.838 315.261 162.784 315.533L162.458 315.75H151.714ZM158.443 314.502C159.419 314.502 159.528 314.013 159.528 313.525C159.528 311.571 158.334 309.998 156.218 309.998C153.884 309.998 152.31 311.734 151.822 314.447H158.443V314.502Z" fill="white"/>
<path d="M163.706 325.247H164.737C165.823 325.247 166.582 325.247 166.582 323.998V313.308C166.582 312.114 165.171 311.897 164.575 311.571V311.029C167.342 309.835 168.916 308.858 169.241 308.858C169.459 308.858 169.567 308.966 169.567 309.346V312.765H169.621C170.598 311.3 172.172 308.858 174.505 308.858C175.482 308.858 176.676 309.509 176.676 310.866C176.676 311.897 175.971 312.819 174.885 312.819C173.691 312.819 173.691 311.897 172.389 311.897C171.738 311.897 169.621 312.765 169.621 315.044V323.998C169.621 325.247 170.381 325.247 171.466 325.247H173.583V326.223C171.466 326.169 169.893 326.169 168.265 326.169C166.691 326.169 165.117 326.223 163.706 326.223V325.247Z" fill="white"/>
<path d="M178.359 320.959C178.847 323.456 180.367 325.626 183.189 325.626C185.414 325.626 186.282 324.27 186.282 322.913C186.282 318.409 177.979 319.874 177.979 313.742C177.979 311.626 179.716 308.858 183.894 308.858C185.088 308.858 186.77 309.184 188.236 309.943L188.507 313.85H187.639C187.259 311.463 185.902 310.052 183.46 310.052C181.941 310.052 180.475 310.92 180.475 312.548C180.475 316.998 189.321 315.641 189.321 321.611C189.321 324.107 187.313 326.82 182.755 326.82C181.235 326.82 179.444 326.278 178.088 325.518L177.654 321.122L178.359 320.959Z" fill="white"/>
<path d="M223.78 306.524H222.803C222.098 302.074 218.896 300.283 214.663 300.283C210.267 300.283 203.918 303.214 203.918 312.385C203.918 320.091 209.399 325.626 215.314 325.626C219.113 325.626 222.206 323.021 222.966 319.005L223.834 319.222L222.966 324.812C221.338 325.789 217.051 326.82 214.5 326.82C205.546 326.82 199.957 321.068 199.957 312.493C199.957 304.679 206.957 299.035 214.392 299.035C217.485 299.035 220.47 300.012 223.4 301.043L223.78 306.524Z" fill="white"/>
<path d="M225.137 325.246H225.843C226.928 325.246 227.688 325.246 227.688 323.997V302.779C227.688 300.283 227.091 300.228 225.68 299.794V299.197C227.199 298.709 228.827 298.004 229.587 297.569C230.021 297.352 230.293 297.135 230.401 297.135C230.618 297.135 230.727 297.352 230.727 297.678V324.052C230.727 325.3 231.595 325.3 232.626 325.3H233.277V326.277C231.975 326.277 230.672 326.222 229.262 326.222C227.905 326.222 226.494 326.277 225.083 326.277V325.246H225.137Z" fill="white"/>
<path d="M249.666 324.161C249.666 324.867 250.1 324.867 250.751 324.867C251.185 324.867 251.782 324.812 252.27 324.812V325.626C250.642 325.789 247.495 326.603 246.789 326.82L246.627 326.712V323.618C244.347 325.464 242.557 326.82 239.843 326.82C237.781 326.82 235.665 325.464 235.665 322.262V312.494C235.665 311.517 235.502 310.54 233.385 310.377V309.672C234.742 309.618 237.781 309.4 238.324 309.4C238.758 309.4 238.758 309.672 238.758 310.486V320.362C238.758 321.502 238.758 324.812 242.068 324.812C243.371 324.812 245.053 323.835 246.681 322.479V312.168C246.681 311.408 244.836 310.974 243.479 310.594V309.889C246.898 309.672 249.069 309.346 249.449 309.346C249.774 309.346 249.774 309.618 249.774 310.052V324.161H249.666Z" fill="white"/>
<path d="M257.263 311.57C258.782 310.268 260.844 308.803 262.961 308.803C267.411 308.803 270.07 312.656 270.07 316.834C270.07 321.827 266.434 326.819 260.953 326.819C258.131 326.819 256.666 325.897 255.635 325.463L254.495 326.331L253.681 325.897C254.007 323.672 254.224 321.447 254.224 319.113V302.779C254.224 300.283 253.681 300.228 252.216 299.794V299.197C253.735 298.709 255.363 298.004 256.123 297.569C256.557 297.352 256.829 297.135 256.991 297.135C257.209 297.135 257.317 297.352 257.317 297.678V311.57H257.263ZM257.263 321.935C257.263 323.401 258.619 325.843 261.224 325.843C265.294 325.843 267.031 321.827 267.031 318.462C267.031 314.338 263.883 310.919 260.899 310.919C259.488 310.919 258.294 311.842 257.263 312.71V321.935Z" fill="white"/>
<path d="M92.6165 348.473H92.8879C93.6476 348.473 94.4073 348.364 94.4073 347.279V336.426C94.4073 335.34 93.5933 335.232 92.8879 335.232H92.6165V334.581C93.4305 334.581 94.6787 334.689 95.7097 334.689C96.7408 334.689 97.989 334.581 98.9658 334.581V335.232H98.6944C97.9347 335.232 97.175 335.34 97.175 336.426V347.279C97.175 348.364 97.989 348.473 98.6944 348.473H98.9658V349.124C97.989 349.124 96.7408 349.07 95.7097 349.07C94.6787 349.07 93.4848 349.124 92.6708 349.124V348.473H92.6165Z" fill="white"/>
<path d="M98.9661 349.178C97.9893 349.178 96.7412 349.124 95.7101 349.124C94.679 349.124 93.4852 349.178 92.6712 349.178H92.5626V349.07V348.473V348.364H92.6712H92.9425C93.7022 348.364 94.4077 348.256 94.4077 347.279V336.425C94.4077 335.394 93.7022 335.34 92.9425 335.34H92.5626V335.231V334.472H92.6712C93.4852 334.472 94.7333 334.526 95.7644 334.526C96.7954 334.526 98.0436 334.472 99.0204 334.472H99.1289V334.58V335.286H99.0204H98.7491C97.9893 335.286 97.2839 335.34 97.2839 336.371V347.224C97.2839 348.256 97.9893 348.31 98.7491 348.31H99.1289V348.418V349.124H98.9661V349.178ZM98.8576 349.015V348.581H98.6405C97.8808 348.581 97.0125 348.473 97.0125 347.279V336.425C97.0125 335.286 97.8808 335.177 98.6405 335.177H98.8576V334.743C97.8808 334.743 96.6869 334.852 95.7101 334.852C94.7333 334.852 93.5394 334.797 92.7254 334.743V335.177H92.9425C93.7022 335.177 94.5705 335.286 94.5705 336.425V347.279C94.5705 348.418 93.7022 348.581 92.9425 348.581H92.7254V349.015C93.5394 349.015 94.679 348.907 95.7101 348.907C96.6869 348.907 97.8808 348.961 98.8576 349.015Z" fill="white"/>
<path d="M113.238 345L113.293 337.185C113.293 335.503 112.099 335.232 111.502 335.232H111.068V334.581C112.045 334.581 113.021 334.689 113.998 334.689C114.867 334.689 115.681 334.581 116.549 334.581V335.232H116.223C115.355 335.232 114.378 335.395 114.378 337.891V347.333C114.378 348.039 114.378 348.799 114.487 349.45H113.673L102.982 337.511V346.085C102.982 347.876 103.308 348.527 104.936 348.527H105.316V349.178C104.447 349.178 103.525 349.124 102.656 349.124C101.734 349.124 100.757 349.178 99.8345 349.178V348.527H100.106C101.517 348.527 101.951 347.55 101.951 345.868V337.077C101.951 335.937 100.974 335.232 100.052 335.232H99.7803V334.581C100.54 334.581 101.354 334.689 102.168 334.689C102.765 334.689 103.416 334.581 104.013 334.581L113.238 345Z" fill="white"/>
<path d="M114.432 349.504L113.564 349.449L103.036 337.728V346.031C103.036 347.821 103.361 348.364 104.881 348.364H105.315V348.473V349.178H105.207C104.284 349.178 103.416 349.124 102.547 349.124C101.625 349.124 100.648 349.178 99.7255 349.178H99.617V349.07V348.364H99.7255H99.9969C101.354 348.364 101.788 347.496 101.788 345.813V337.076C101.788 335.991 100.865 335.286 99.9969 335.286H99.617V335.177V334.472H99.7255C100.54 334.472 101.354 334.526 102.113 334.526C102.71 334.526 103.307 334.472 104.013 334.472L113.129 344.728V337.185C113.129 335.557 112.044 335.34 111.393 335.34H110.85V335.231V334.472H110.959C111.936 334.472 112.912 334.526 113.889 334.526C114.758 334.526 115.572 334.472 116.44 334.472H116.548V334.58V335.286H116.44H116.114C115.246 335.286 114.378 335.394 114.378 337.836V347.279C114.378 347.984 114.378 348.744 114.486 349.341V349.449H114.432V349.504ZM113.618 349.287H114.323C114.215 348.69 114.215 347.984 114.215 347.279V337.836C114.215 335.34 115.246 335.123 116.168 335.123H116.386V334.689C115.572 334.689 114.758 334.797 113.944 334.797C112.967 334.797 112.044 334.743 111.122 334.689V335.123H111.501C112.153 335.123 113.401 335.394 113.401 337.185V345.054L113.347 345.108L113.292 345.162L104.067 334.743C103.47 334.743 102.873 334.852 102.222 334.852C101.462 334.852 100.702 334.797 99.9426 334.743V335.177H100.105C101.082 335.177 102.059 335.937 102.059 337.131V345.868C102.059 347.55 101.571 348.581 100.105 348.581H99.8883V349.015C100.811 349.015 101.733 348.907 102.602 348.907C103.47 348.907 104.338 348.961 105.207 349.015V348.581H104.881C103.253 348.581 102.819 347.876 102.819 346.085V337.239L113.618 349.287Z" fill="white"/>
<path d="M119.587 335.611C118.014 335.611 117.959 335.99 117.634 337.51H117.037C117.145 336.913 117.2 336.37 117.308 335.719C117.363 335.122 117.417 334.579 117.417 333.982H117.905C118.068 334.579 118.611 334.579 119.153 334.579H129.844C130.387 334.579 130.929 334.579 130.984 333.928L131.472 334.037C131.418 334.579 131.309 335.176 131.255 335.719C131.201 336.262 131.201 336.859 131.201 337.401L130.604 337.618C130.549 336.859 130.441 335.611 129.084 335.611H125.665V346.681C125.665 348.309 126.371 348.472 127.402 348.472H127.782V349.123C126.968 349.123 125.503 349.069 124.417 349.069C123.169 349.069 121.704 349.123 120.89 349.123V348.472H121.27C122.409 348.472 123.006 348.363 123.006 346.735V335.611H119.587Z" fill="white"/>
<path d="M127.782 349.177C126.968 349.177 125.503 349.123 124.417 349.123C123.169 349.123 121.704 349.177 120.89 349.177H120.781V349.069V348.363H120.89H121.27C122.409 348.309 122.898 348.309 122.898 346.735V335.719H119.587V335.611V335.556H123.061V346.735C123.061 348.418 122.409 348.58 121.27 348.58H120.944V349.014C121.758 349.014 123.169 348.906 124.363 348.906C125.448 348.906 126.859 348.96 127.673 349.014V348.58H127.348C126.317 348.58 125.557 348.309 125.557 346.681V335.556H129.03C130.441 335.556 130.604 336.75 130.658 337.51L131.092 337.347C131.092 336.804 131.092 336.262 131.146 335.719C131.201 335.176 131.309 334.634 131.363 334.145L131.038 334.091C130.929 334.688 130.332 334.742 129.844 334.742H119.153C119.099 334.742 119.099 334.742 119.045 334.742C118.556 334.742 118.014 334.742 117.851 334.145H117.525C117.525 334.742 117.471 335.285 117.417 335.828C117.363 336.37 117.254 336.967 117.2 337.51H117.634C117.905 336.045 118.068 335.611 119.642 335.611V335.719V335.828C118.122 335.882 118.122 336.099 117.797 337.673V337.727H117.742H117.037V337.618C117.091 337.021 117.2 336.479 117.308 335.828C117.417 335.231 117.417 334.688 117.417 334.091V333.982H117.525H118.068V334.037C118.231 334.579 118.611 334.579 119.099 334.579C119.153 334.579 119.153 334.579 119.208 334.579H129.844C130.441 334.579 130.821 334.579 130.875 334.037V333.928H130.984L131.58 334.037V334.145C131.526 334.688 131.418 335.285 131.363 335.828C131.309 336.37 131.309 336.967 131.309 337.51V337.564H131.255L130.495 337.835V337.727C130.441 336.967 130.332 335.828 129.03 335.828H125.72V346.79C125.72 348.363 126.371 348.472 127.348 348.472H127.836V348.58V349.286H127.782V349.177Z" fill="white"/>
<path d="M132.124 348.473H132.395C133.155 348.473 133.915 348.364 133.915 347.279V336.426C133.915 335.34 133.101 335.232 132.395 335.232H132.124V334.581C133.372 334.581 135.543 334.689 137.279 334.689C139.016 334.689 141.186 334.581 142.597 334.581C142.543 335.449 142.597 336.86 142.652 337.782L142 337.945C141.892 336.588 141.675 335.503 139.45 335.503H136.574V340.93H139.016C140.264 340.93 140.535 340.224 140.644 339.085H141.241C141.186 339.899 141.186 340.713 141.186 341.527C141.186 342.341 141.186 343.1 141.241 343.915L140.644 344.023C140.535 342.775 140.481 341.961 139.016 341.961H136.519V346.791C136.519 348.147 137.713 348.147 139.07 348.147C141.566 348.147 142.652 347.985 143.303 345.597L143.9 345.76C143.628 346.845 143.357 347.93 143.194 349.07C141.892 349.07 139.504 349.016 137.605 349.016C135.76 349.016 133.263 349.07 132.069 349.07V348.473H132.124Z" fill="white"/>
<path d="M143.248 349.178C141.891 349.178 139.504 349.07 137.659 349.07C135.813 349.07 133.317 349.178 132.123 349.178H132.015V349.07V348.418V348.31H132.123H132.395C133.154 348.31 133.806 348.201 133.86 347.224V336.371C133.86 335.34 133.154 335.286 132.395 335.286H132.015V335.177V334.472H132.123C133.371 334.472 135.542 334.526 137.279 334.526C139.015 334.526 141.186 334.472 142.597 334.472H142.705V334.58C142.705 334.906 142.705 335.286 142.705 335.666C142.705 336.371 142.705 337.185 142.76 337.782V337.836H142.705L142 338.053V337.945C141.891 336.588 141.674 335.611 139.558 335.611H136.736V340.875H139.124C140.318 340.875 140.535 340.278 140.697 339.139V339.084H140.752H141.457V339.193C141.403 340.007 141.403 340.821 141.403 341.635C141.403 342.395 141.403 343.209 141.457 344.023V344.077H141.403L140.697 344.24V344.131C140.535 342.883 140.535 342.178 139.178 342.178H136.79V346.953C136.79 348.201 137.876 348.201 139.232 348.201C141.729 348.201 142.76 348.038 143.357 345.705V345.596H143.465L144.116 345.759V345.868C143.845 346.953 143.628 348.038 143.411 349.178V349.232H143.248V349.178ZM143.194 348.961C143.357 347.93 143.628 346.845 143.845 345.813L143.411 345.705C142.814 348.038 141.566 348.256 139.124 348.201C137.821 348.201 136.519 348.201 136.519 346.736V341.798H139.124C140.589 341.798 140.698 342.666 140.806 343.86L141.24 343.751C141.186 342.992 141.186 342.232 141.186 341.472C141.186 340.712 141.186 339.898 141.24 339.139H140.806C140.698 340.224 140.372 340.984 139.069 340.984H136.519V335.394H139.504C141.674 335.394 142 336.48 142.108 337.782L142.543 337.673C142.488 337.076 142.488 336.317 142.488 335.666C142.488 335.286 142.488 334.96 142.488 334.689C141.077 334.689 138.961 334.797 137.279 334.797C135.596 334.797 133.48 334.743 132.178 334.689V335.123H132.395C133.154 335.123 134.023 335.231 134.023 336.371V347.224C134.023 348.364 133.154 348.473 132.395 348.527H132.178V348.961C133.371 348.961 135.813 348.852 137.604 348.852C139.504 348.907 141.837 348.961 143.194 348.961Z" fill="white"/>
<path d="M146.776 336.806C146.776 335.286 145.962 335.232 145.311 335.232H144.931V334.581C145.582 334.581 146.884 334.689 148.132 334.689C149.381 334.689 150.357 334.581 151.497 334.581C154.102 334.581 156.435 335.286 156.435 338.216C156.435 340.062 155.187 341.201 153.559 341.852L157.086 347.171C157.683 348.039 158.063 348.31 159.094 348.419V349.07C158.389 349.07 157.738 349.016 157.086 349.016C156.435 349.016 155.784 349.07 155.133 349.07C153.559 346.953 152.148 344.729 150.792 342.341H149.435V346.791C149.435 348.419 150.195 348.473 151.117 348.473H151.497V349.124C150.303 349.124 149.109 349.07 147.915 349.07C146.939 349.07 145.962 349.124 144.876 349.124V348.473H145.256C146.016 348.473 146.721 348.147 146.721 347.333V336.806H146.776ZM149.435 341.581H150.466C152.528 341.581 153.668 340.821 153.668 338.325C153.668 336.48 152.474 335.286 150.629 335.286C149.977 335.286 149.76 335.34 149.435 335.395V341.581Z" fill="white"/>
<path d="M159.094 349.178C158.388 349.178 157.737 349.124 157.032 349.124C156.381 349.124 155.729 349.178 155.024 349.178C153.45 347.062 152.093 344.837 150.737 342.503H149.489V346.845C149.489 348.418 150.14 348.418 151.117 348.418H151.605V348.527V349.232H151.497C150.303 349.232 149.109 349.178 147.915 349.178C146.938 349.178 145.961 349.232 144.93 349.232H144.822V349.124V348.418H144.93H145.31C146.07 348.418 146.667 348.093 146.667 347.387V336.805C146.667 335.34 145.907 335.34 145.31 335.34H144.822V335.231V334.472H144.93C145.581 334.472 146.884 334.526 148.132 334.526C149.38 334.526 150.357 334.472 151.497 334.472C154.101 334.472 156.543 335.177 156.543 338.216C156.543 340.115 155.295 341.255 153.722 341.906L157.195 347.116C157.792 347.984 158.117 348.201 159.148 348.31H159.202V348.364V349.07H159.094V349.178ZM149.434 342.232H150.845V342.286C152.202 344.674 153.559 346.899 155.078 348.961C155.729 348.961 156.381 348.852 157.032 348.852C157.683 348.852 158.334 348.907 158.985 348.961V348.527C158.009 348.418 157.574 348.093 156.978 347.279L153.342 341.852L153.45 341.798C155.078 341.147 156.272 340.061 156.272 338.216C156.272 335.34 154.047 334.689 151.442 334.634C150.357 334.634 149.326 334.743 148.078 334.743C146.83 334.743 145.636 334.689 144.93 334.634V335.069H145.202C145.853 335.069 146.775 335.177 146.775 336.751V347.279C146.775 348.093 146.016 348.473 145.202 348.473H144.93V348.907C145.907 348.907 146.884 348.798 147.861 348.798C149 348.798 150.194 348.852 151.334 348.907V348.473H151.062C150.14 348.473 149.272 348.364 149.272 346.736V342.178H149.434V342.232ZM149.434 341.689H149.326V335.34H149.38C149.651 335.34 149.923 335.286 150.574 335.286C152.473 335.286 153.722 336.534 153.722 338.433C153.722 340.929 152.528 341.743 150.411 341.743H149.434V341.689ZM150.411 341.526C152.473 341.526 153.504 340.821 153.504 338.379C153.504 336.588 152.365 335.448 150.574 335.448C150.031 335.448 149.76 335.503 149.489 335.503V341.526H150.411Z" fill="white"/>
<path d="M173.203 345L173.257 337.185C173.257 335.503 172.063 335.232 171.466 335.232H171.032V334.581C172.009 334.581 172.986 334.689 173.963 334.689C174.831 334.689 175.645 334.581 176.513 334.581V335.232H176.188C175.319 335.232 174.343 335.395 174.343 337.891V347.333C174.343 348.039 174.343 348.799 174.451 349.45H173.691L163.001 337.511V346.085C163.001 347.876 163.381 348.527 164.954 348.527H165.334V349.178C164.466 349.178 163.543 349.124 162.675 349.124C161.753 349.124 160.776 349.178 159.853 349.178V348.527H160.125C161.536 348.527 161.97 347.55 161.97 345.868V337.077C161.97 335.937 160.993 335.232 160.07 335.232H159.69V334.581C160.45 334.581 161.318 334.689 162.078 334.689C162.675 334.689 163.326 334.581 163.923 334.581L173.203 345Z" fill="white"/>
<path d="M174.397 349.504L173.529 349.449L163.001 337.728V346.031C163.001 347.821 163.326 348.364 164.846 348.364H165.28V348.473V349.178H165.171C164.249 349.178 163.381 349.07 162.512 349.07C161.59 349.07 160.613 349.178 159.69 349.178H159.582V349.07V348.364H159.69H159.962C161.318 348.364 161.753 347.496 161.753 345.813V337.076C161.753 335.991 160.83 335.286 159.962 335.286H159.582V335.177V334.472H159.69C160.504 334.472 161.318 334.526 162.078 334.526C162.675 334.526 163.272 334.472 163.978 334.472L173.094 344.728V337.185C173.094 335.557 172.009 335.34 171.358 335.34H170.815V335.231V334.472H170.924C171.901 334.472 172.877 334.526 173.854 334.526C174.722 334.526 175.536 334.472 176.405 334.472H176.513V334.58V335.286H176.405H176.079C175.211 335.286 174.343 335.394 174.343 337.836V347.279C174.343 347.984 174.343 348.744 174.451 349.341V349.449H174.397V349.504ZM173.583 349.287H174.288C174.18 348.69 174.18 347.984 174.18 347.279V337.836C174.18 335.34 175.211 335.123 176.133 335.123H176.35V334.689C175.536 334.689 174.722 334.797 173.908 334.797C172.932 334.797 172.009 334.743 171.087 334.689V335.123H171.466C172.118 335.123 173.366 335.394 173.366 337.185L173.311 345.054L173.257 345.108L173.203 345.162L163.978 334.743C163.381 334.743 162.729 334.852 162.132 334.852C161.373 334.852 160.613 334.797 159.853 334.743V335.177H160.016C160.993 335.177 161.97 335.937 161.97 337.131V345.868C161.97 347.55 161.481 348.581 160.016 348.581H159.799V349.015C160.722 349.015 161.644 348.907 162.512 348.907C163.381 348.907 164.249 348.961 165.117 349.015V348.581H164.846C163.218 348.581 162.784 347.876 162.784 346.085V337.239L173.583 349.287Z" fill="white"/>
<path d="M179.77 346.084C179.553 346.79 179.281 347.333 179.281 347.712C179.281 348.364 180.15 348.418 180.855 348.418H181.072V349.069C180.258 349.015 179.39 349.015 178.576 349.015C177.816 349.015 177.056 349.069 176.351 349.069V348.418H176.459C177.273 348.418 177.979 347.93 178.25 347.061L181.561 337.51C181.832 336.751 182.212 335.719 182.32 334.905C182.972 334.688 183.84 334.254 184.22 334.037C184.274 334.037 184.328 333.983 184.382 333.983C184.437 333.983 184.491 333.983 184.545 334.037C184.6 334.2 184.654 334.417 184.708 334.58L188.507 345.433C188.778 346.139 188.995 346.953 189.267 347.55C189.538 348.147 189.972 348.364 190.623 348.364H190.732V349.015C189.809 348.961 188.887 348.961 187.856 348.961C186.824 348.961 185.793 349.015 184.762 349.015V348.364H184.979C185.468 348.364 186.282 348.309 186.282 347.767C186.282 347.495 186.119 346.953 185.848 346.247L185.034 343.86H180.312L179.77 346.084ZM182.809 336.913L180.855 342.774H184.762L182.809 336.913Z" fill="white"/>
<path d="M190.84 349.178C189.917 349.124 188.995 349.07 187.964 349.07C186.933 349.07 185.902 349.124 184.871 349.178H184.762V349.07V348.364H184.871H185.088C185.576 348.364 186.281 348.256 186.281 347.876C186.281 347.659 186.119 347.062 185.902 346.41L185.088 344.077H180.529L179.878 346.193C179.661 346.899 179.444 347.442 179.444 347.767C179.444 348.256 180.204 348.418 180.909 348.418H181.235V348.527V349.232H181.126C180.312 349.178 179.444 349.124 178.63 349.124C177.87 349.124 177.11 349.178 176.405 349.232H176.296V349.124V348.418H176.405H176.513C177.273 348.418 177.924 347.984 178.25 347.116L181.56 337.565C181.832 336.805 182.211 335.774 182.374 334.96C183.025 334.743 183.839 334.309 184.274 334.092C184.328 334.092 184.382 334.038 184.491 334.038C184.545 334.038 184.653 334.038 184.708 334.146C184.762 334.309 184.816 334.526 184.871 334.689L188.723 345.542C188.995 346.248 189.212 347.062 189.483 347.659C189.7 348.201 190.08 348.418 190.786 348.418H191.003V348.527V349.232L190.84 349.178ZM184.925 348.961C185.956 348.907 186.933 348.907 187.964 348.907C188.941 348.907 189.809 348.961 190.731 348.961V348.527H190.677C189.972 348.527 189.483 348.256 189.212 347.659C188.941 347.007 188.669 346.248 188.452 345.542L184.653 334.689C184.599 334.526 184.545 334.309 184.491 334.2C184.491 334.2 184.491 334.2 184.436 334.2C184.436 334.2 184.436 334.2 184.382 334.2C184.328 334.2 184.328 334.2 184.274 334.255C183.894 334.526 183.025 334.906 182.428 335.069C182.32 335.883 181.94 336.914 181.669 337.673L178.358 347.224C178.033 348.147 177.327 348.635 176.459 348.635H176.405V349.07C177.11 349.015 177.816 349.015 178.576 349.015C179.39 349.015 180.204 349.07 181.018 349.07V348.635H180.855C180.149 348.635 179.227 348.581 179.227 347.821C179.227 347.387 179.498 346.899 179.661 346.193H179.769L179.661 346.139L180.366 343.914H185.196L186.01 346.356C186.227 347.007 186.444 347.55 186.444 347.876C186.39 348.527 185.522 348.581 185.088 348.581H184.925V348.961ZM180.692 342.883L182.7 336.805H182.754H182.808H182.863L184.816 342.883H180.692ZM180.963 342.72H184.599L182.808 337.131L180.963 342.72Z" fill="white"/>
<path d="M191.763 335.611C190.189 335.611 190.135 335.99 189.809 337.51H189.158C189.266 336.913 189.375 336.37 189.429 335.719C189.538 335.122 189.538 334.579 189.538 333.982H190.026C190.189 334.579 190.732 334.579 191.274 334.579H202.019C202.562 334.579 203.104 334.579 203.159 333.928L203.647 334.037C203.593 334.579 203.484 335.176 203.43 335.719C203.376 336.262 203.376 336.859 203.376 337.401L202.779 337.618C202.725 336.859 202.616 335.611 201.259 335.611H197.841V346.681C197.841 348.309 198.546 348.472 199.577 348.472H199.957V349.123C199.143 349.123 197.678 349.069 196.592 349.069C195.344 349.069 193.879 349.123 193.065 349.123V348.472H193.445C194.584 348.472 195.181 348.363 195.181 346.735V335.611H191.763Z" fill="white"/>
<path d="M199.903 349.178C199.089 349.178 197.623 349.123 196.538 349.123C195.29 349.123 193.825 349.178 193.011 349.178H192.902V349.069V348.364H193.011H193.391C194.53 348.309 195.019 348.309 195.019 346.736V335.719H191.708V335.611V335.557H195.181V346.736C195.181 348.418 194.53 348.581 193.391 348.581H193.065V349.015C193.879 349.015 195.29 348.906 196.484 348.906C197.569 348.906 198.98 348.961 199.794 349.015V348.581H199.469C198.492 348.581 197.678 348.309 197.678 346.681V335.557H201.151C202.562 335.557 202.725 336.751 202.779 337.51L203.213 337.347C203.213 336.805 203.213 336.262 203.267 335.719C203.321 335.177 203.43 334.634 203.484 334.146L203.159 334.091C203.05 334.688 202.453 334.743 201.965 334.743H191.274C191.22 334.743 191.22 334.743 191.166 334.743C190.677 334.743 190.135 334.743 189.972 334.146H189.646C189.646 334.743 189.592 335.285 189.538 335.828C189.483 336.425 189.375 336.968 189.321 337.51H189.755C190.026 336.045 190.189 335.611 191.763 335.611V335.719V335.828C190.243 335.882 190.243 336.099 189.918 337.673V337.727H189.863H189.158V337.619C189.266 337.022 189.321 336.479 189.429 335.882C189.538 335.285 189.538 334.743 189.538 334.146V334.037H189.646H190.189V334.091C190.352 334.634 190.732 334.634 191.22 334.634C191.274 334.634 191.274 334.634 191.328 334.634H202.019C202.616 334.634 202.996 334.634 203.05 334.091V333.983H203.159L203.756 334.091V334.2C203.647 334.743 203.593 335.34 203.539 335.882C203.484 336.425 203.484 337.022 203.484 337.565V337.619H203.43L202.67 337.89V337.782C202.616 337.022 202.507 335.882 201.205 335.882H197.895V346.844C197.895 348.418 198.546 348.526 199.523 348.526H200.011V348.635V349.34H199.903V349.178Z" fill="white"/>
<path d="M204.406 348.473H204.678C205.437 348.473 206.197 348.364 206.197 347.279V336.426C206.197 335.34 205.437 335.232 204.678 335.232H204.406V334.581C205.22 334.581 206.469 334.689 207.5 334.689C208.531 334.689 209.779 334.581 210.756 334.581V335.232H210.484C209.725 335.232 208.965 335.34 208.965 336.426V347.279C208.965 348.364 209.779 348.473 210.484 348.473H210.756V349.124C209.779 349.124 208.531 349.07 207.5 349.07C206.469 349.07 205.275 349.124 204.461 349.124V348.473H204.406Z" fill="white"/>
<path d="M210.756 349.178C209.779 349.178 208.531 349.07 207.5 349.07C206.469 349.07 205.275 349.178 204.461 349.178H204.352V349.07V348.418V348.31H204.461H204.732C205.492 348.31 206.198 348.201 206.198 347.224V336.371C206.198 335.34 205.492 335.286 204.732 335.286H204.352V335.177V334.472H204.461C205.275 334.472 206.523 334.526 207.554 334.526C208.585 334.526 209.833 334.472 210.81 334.472H210.919V334.58V335.286H210.81H210.539C209.779 335.286 209.074 335.394 209.074 336.371V347.224C209.074 348.256 209.779 348.31 210.539 348.31H210.919V348.418V349.124H210.756V349.178ZM210.647 348.961V348.527H210.43C209.671 348.527 208.802 348.418 208.802 347.224V336.371C208.802 335.231 209.671 335.123 210.43 335.123H210.647V334.689C209.671 334.689 208.477 334.797 207.5 334.797C206.523 334.797 205.329 334.743 204.515 334.689V335.123H204.732C205.492 335.123 206.36 335.231 206.36 336.371V347.224C206.36 348.364 205.492 348.527 204.732 348.527H204.515V348.961C205.329 348.961 206.469 348.852 207.5 348.852C208.477 348.907 209.671 348.961 210.647 348.961Z" fill="white"/>
<path d="M219.004 334.253C223.454 334.253 226.982 337.021 226.982 341.416C226.982 346.192 223.563 349.393 219.113 349.393C214.717 349.393 211.353 346.409 211.353 341.959C211.353 337.617 214.717 334.253 219.004 334.253ZM219.33 348.471C223.346 348.471 224.051 344.944 224.051 341.905C224.051 338.866 222.423 335.175 218.95 335.175C215.314 335.175 214.229 338.431 214.229 341.199C214.283 344.944 215.965 348.471 219.33 348.471Z" fill="white"/>
<path d="M211.244 341.906C211.244 337.564 214.609 334.146 219.004 334.146V334.254V334.363C214.717 334.363 211.407 337.673 211.407 341.906C211.407 346.301 214.717 349.286 219.113 349.286C223.508 349.286 226.873 346.139 226.873 341.417C226.873 337.076 223.4 334.363 219.004 334.363V334.254V334.146C223.454 334.146 227.036 336.913 227.036 341.417C227.036 346.247 223.563 349.449 219.113 349.449C214.663 349.449 211.298 346.464 211.244 341.906ZM214.174 341.2C214.174 338.433 215.26 335.068 219.004 335.068C222.532 335.068 224.16 338.812 224.16 341.851C224.16 344.89 223.454 348.526 219.33 348.526V348.418V348.309C223.291 348.309 223.943 344.836 223.997 341.797C223.997 338.812 222.369 335.177 219.004 335.177C215.423 335.177 214.392 338.324 214.392 341.092C214.392 344.782 216.074 348.255 219.384 348.255V348.363V348.472C215.857 348.581 214.174 344.945 214.174 341.2Z" fill="white"/>
<path d="M240.983 345L241.037 337.185C241.037 335.503 239.843 335.232 239.246 335.232H238.812V334.581C239.789 334.581 240.766 334.689 241.688 334.689C242.557 334.689 243.371 334.581 244.239 334.581V335.232H243.913C243.045 335.232 242.068 335.395 242.068 337.891V347.333C242.068 348.039 242.068 348.799 242.177 349.45H241.363L230.672 337.511V346.085C230.672 347.876 230.998 348.527 232.626 348.527H232.951V349.178C232.083 349.178 231.161 349.124 230.292 349.124C229.37 349.124 228.393 349.178 227.47 349.178V348.527H227.742C229.153 348.527 229.587 347.55 229.587 345.868V337.077C229.587 335.937 228.61 335.232 227.688 335.232H227.416V334.581C228.23 334.581 228.99 334.689 229.804 334.689C230.401 334.689 231.052 334.581 231.649 334.581L240.983 345Z" fill="white"/>
<path d="M242.177 349.504L241.309 349.449L230.781 337.728V346.031C230.781 347.821 231.106 348.364 232.626 348.364H233.06V348.473V349.178H232.951C232.029 349.178 231.161 349.124 230.292 349.124C229.37 349.124 228.393 349.178 227.471 349.178H227.362V349.07V348.364H227.471H227.742C229.099 348.364 229.533 347.496 229.533 345.813V337.076C229.533 335.991 228.61 335.286 227.742 335.286H227.362V335.177V334.472H227.471C228.285 334.472 229.099 334.526 229.858 334.526C230.455 334.526 231.052 334.472 231.758 334.472L240.874 344.728V337.185C240.874 335.557 239.789 335.34 239.138 335.34H238.595V335.231V334.472H238.704C239.681 334.472 240.657 334.526 241.58 334.526C242.448 334.526 243.262 334.472 244.131 334.472H244.239V334.58V335.286H244.131H243.805C242.937 335.286 242.068 335.394 242.068 337.836V347.279C242.068 347.984 242.068 348.744 242.177 349.341V349.449V349.504ZM241.363 349.287H242.068C241.96 348.69 241.96 347.984 241.96 347.279V337.836C241.96 335.34 242.991 335.123 243.913 335.123H244.131V334.689C243.317 334.689 242.502 334.797 241.634 334.797C240.712 334.797 239.789 334.743 238.812 334.689V335.123H239.192C239.843 335.123 241.092 335.394 241.092 337.185V345.054L241.037 345.108L240.983 345.162L231.758 334.743C231.161 334.743 230.564 334.852 229.913 334.852C229.153 334.852 228.339 334.797 227.633 334.743V335.177H227.796C228.773 335.177 229.804 335.937 229.804 337.131V345.868C229.804 347.55 229.316 348.581 227.85 348.581H227.633V349.015C228.556 349.015 229.478 348.907 230.347 348.907C231.215 348.907 232.083 348.961 232.951 349.015V348.581H232.68C231.052 348.581 230.618 347.876 230.618 346.085V337.239L241.363 349.287Z" fill="white"/>
<path d="M247.548 346.085C247.331 346.79 247.114 347.333 247.114 347.713C247.114 348.364 247.983 348.418 248.688 348.418H248.905V349.07C248.091 349.015 247.223 349.015 246.409 349.015C245.649 349.015 244.889 349.07 244.184 349.07V348.418H244.292C245.106 348.418 245.812 347.93 246.083 347.062L249.393 337.511C249.665 336.751 250.045 335.72 250.153 334.906C250.804 334.689 251.673 334.255 252.053 334.038C252.107 334.038 252.161 333.983 252.215 333.983C252.27 333.983 252.324 333.983 252.378 334.038C252.432 334.2 252.487 334.418 252.595 334.58L256.394 345.434C256.611 346.139 256.882 346.953 257.154 347.55C257.425 348.147 257.859 348.364 258.51 348.364H258.619V349.015C257.696 348.961 256.774 348.961 255.743 348.961C254.712 348.961 253.681 349.015 252.649 349.015V348.364H252.867C253.355 348.364 254.169 348.31 254.169 347.767C254.169 347.496 254.006 346.953 253.735 346.248L252.921 343.86H248.2L247.548 346.085ZM250.587 336.914L248.634 342.775H252.541L250.587 336.914Z" fill="white"/>
<path d="M258.619 349.178C257.697 349.124 256.774 349.124 255.743 349.124C254.712 349.124 253.681 349.178 252.65 349.178H252.541V349.07V348.364H252.65H252.867C253.355 348.364 254.061 348.256 254.061 347.876C254.061 347.659 253.898 347.062 253.627 346.41L252.813 344.077H248.254L247.603 346.193C247.386 346.899 247.169 347.442 247.169 347.767C247.169 348.256 247.929 348.418 248.634 348.418H248.96V348.527V349.232H248.851C248.037 349.178 247.169 349.178 246.355 349.178C245.595 349.178 244.89 349.232 244.13 349.232H244.021V349.124V348.418H244.13H244.238C244.998 348.418 245.649 347.984 245.975 347.116L249.285 337.565C249.557 336.805 249.936 335.774 250.099 334.96C250.75 334.743 251.564 334.309 251.999 334.092C252.053 334.092 252.107 334.038 252.216 334.038C252.27 334.038 252.378 334.038 252.433 334.146C252.487 334.309 252.541 334.472 252.596 334.689L256.394 345.542C256.666 346.248 256.883 347.062 257.154 347.659C257.425 348.201 257.751 348.418 258.456 348.418H258.673V348.527V349.232L258.619 349.178ZM252.704 348.961C253.735 348.907 254.766 348.907 255.743 348.907C256.72 348.907 257.588 348.961 258.511 348.961V348.527H258.456C257.751 348.527 257.263 348.256 256.991 347.659C256.72 347.007 256.449 346.248 256.231 345.542L252.433 334.689C252.378 334.526 252.324 334.309 252.27 334.2C252.27 334.146 252.27 334.146 252.216 334.146C252.216 334.146 252.216 334.146 252.161 334.146C252.107 334.146 252.107 334.146 252.053 334.2C251.673 334.472 250.805 334.852 250.208 335.014C250.099 335.828 249.719 336.859 249.448 337.619L246.138 347.17C245.812 348.093 245.107 348.581 244.238 348.581H244.184V349.015C244.89 348.961 245.595 348.961 246.355 348.961C247.169 348.961 247.983 349.015 248.797 349.015V348.581H248.634C247.983 348.581 247.006 348.527 247.006 347.767C247.006 347.333 247.277 346.845 247.494 346.139H247.549L247.494 346.085L248.2 343.86H253.03L253.844 346.302C254.061 346.953 254.278 347.496 254.278 347.821C254.224 348.473 253.355 348.527 252.921 348.527H252.813V348.961H252.704ZM248.471 342.883L250.479 336.859H250.533H250.588H250.642L252.596 342.883H248.471ZM248.743 342.72H252.378L250.588 337.185L248.743 342.72Z" fill="white"/>
<path d="M263.829 347.062C263.829 347.876 264.426 348.147 265.077 348.202C265.945 348.256 266.868 348.256 267.845 348.147C268.713 348.039 269.473 347.55 269.853 347.008C270.178 346.574 270.341 345.977 270.504 345.488H271.101C270.884 346.682 270.558 347.822 270.341 349.016C268.496 349.016 266.705 348.961 264.86 348.961C263.015 348.961 261.224 349.016 259.379 349.016V348.364H259.65C260.41 348.364 261.224 348.256 261.224 346.954V336.371C261.224 335.286 260.41 335.178 259.65 335.178H259.379V334.526C260.464 334.526 261.55 334.635 262.635 334.635C263.72 334.635 264.751 334.526 265.782 334.526V335.178H265.24C264.48 335.178 263.829 335.178 263.829 336.317V347.062Z" fill="white"/>
<path d="M270.287 349.178C268.442 349.178 266.651 349.124 264.806 349.124C262.961 349.124 261.17 349.178 259.325 349.178H259.217V349.07V348.364H259.325H259.597C260.356 348.364 261.062 348.31 261.062 347.062V336.371C261.062 335.34 260.356 335.286 259.597 335.286H259.217V335.177V334.472H259.325C260.411 334.472 261.496 334.526 262.636 334.526C263.667 334.526 264.752 334.472 265.783 334.472H265.837V334.58V335.286H265.783H265.24C264.426 335.286 263.938 335.286 263.938 336.317V347.007C263.938 347.767 264.426 347.984 265.132 348.093C265.512 348.093 265.892 348.147 266.271 348.147C266.76 348.147 267.302 348.147 267.845 348.093C268.713 347.984 269.419 347.496 269.799 347.007C270.124 346.573 270.287 345.976 270.45 345.542V345.488H270.504H271.21V345.596C270.993 346.79 270.667 347.93 270.45 349.124V349.178H270.287ZM270.233 348.961C270.45 347.821 270.721 346.736 270.938 345.596H270.504C270.396 346.031 270.179 346.627 269.853 347.062C269.473 347.604 268.713 348.093 267.791 348.201C267.248 348.256 266.706 348.31 266.217 348.31C265.837 348.31 265.403 348.31 265.023 348.256C264.372 348.201 263.721 347.876 263.721 347.007V336.317C263.721 335.177 264.426 335.123 265.24 335.123H265.674V334.689C264.643 334.689 263.612 334.797 262.581 334.797C261.496 334.797 260.465 334.743 259.379 334.689V335.123H259.597C260.356 335.123 261.225 335.231 261.225 336.371V347.062C261.225 348.418 260.302 348.527 259.597 348.527H259.379V348.961C261.17 348.961 262.961 348.852 264.752 348.852C266.597 348.907 268.442 348.961 270.233 348.961Z" fill="white"/>
<path d="M270.829 333.983C272.078 333.983 273 334.96 273 336.154C273 337.402 272.078 338.324 270.829 338.324C269.581 338.324 268.659 337.347 268.659 336.154C268.605 334.96 269.581 333.983 270.829 333.983ZM270.829 337.944C271.806 337.944 272.566 337.13 272.566 336.154C272.566 335.231 271.806 334.363 270.829 334.363C269.853 334.363 269.093 335.231 269.093 336.154C269.093 337.13 269.798 337.944 270.829 337.944ZM269.744 337.239C270.015 337.185 270.07 337.239 270.07 337.022V335.394C270.07 335.177 270.07 335.068 269.744 335.123V335.014H270.884C271.264 335.014 271.643 335.177 271.643 335.611C271.643 335.937 271.426 336.154 271.101 336.262L271.481 336.751C271.643 336.968 271.861 337.185 271.969 337.239V337.293H271.481C271.264 337.293 271.101 336.859 270.721 336.262H270.504V336.968C270.504 337.13 270.558 337.13 270.829 337.13V337.239H269.744ZM270.45 336.208H270.721C270.992 336.208 271.155 335.991 271.155 335.665C271.155 335.34 270.938 335.177 270.721 335.177H270.504V336.208H270.45Z" fill="white"/>
<path d="M37.21 360.791C17.1312 360.899 0.634033 344.619 0.634033 324.812C0.634033 303.159 17.1312 288.236 37.21 288.236H46.5982C66.4057 288.236 84.5309 303.214 84.5309 324.812C84.5309 344.619 66.4057 360.791 46.5982 360.791H37.21ZM37.2643 291.275C18.922 291.275 4.05286 306.144 4.05286 324.486C4.05286 342.828 18.922 357.698 37.2643 357.698C55.6066 357.698 70.4757 342.828 70.4757 324.486C70.4757 306.144 55.6066 291.275 37.2643 291.275ZM29.7754 344.131V304.842C21.8524 307.881 16.2629 315.478 16.2629 324.486C16.2629 333.44 21.8524 341.092 29.7754 344.131ZM58.3199 324.486C58.3199 315.532 52.6761 307.881 44.8074 304.842V344.131C52.7304 341.092 58.3199 333.44 58.3199 324.486Z" fill="white"/>
<path fill-rule="evenodd" clip-rule="evenodd" d="M220.789 463.217H206.759L203.458 458.678V462.805H183.239L181.588 458.266H178.287L176.637 462.805H161.782C160.956 462.805 160.131 462.805 159.306 462.392C159.1 462.186 158.79 462.083 158.481 461.98C158.171 461.876 157.862 461.773 157.655 461.567C157.449 461.361 157.14 461.257 156.83 461.154C156.521 461.051 156.211 460.948 156.005 460.742V463.217H135.786L132.897 459.091V463.217H60.2729L58.6224 458.678H55.3213L53.6707 463.217H44.1801V444.649L49.957 430.619H63.1614L65.6372 436.396V430.619H82.1427L84.2059 435.983L86.2691 430.619H156.005V432.682C156.417 432.476 156.727 432.373 157.036 432.27C157.346 432.167 157.655 432.063 158.068 431.857C158.289 431.746 158.481 431.636 158.658 431.533C159.144 431.253 159.527 431.032 160.131 431.032C160.544 431.032 160.956 430.929 161.369 430.825C161.782 430.722 162.194 430.619 162.607 430.619H186.953L189.428 436.396V430.619H202.633L205.521 435.158V430.619H220.789V463.217ZM229.454 494.202V504.481C228.02 505.342 226.385 505.804 224.69 506.283C223.948 506.493 223.194 506.706 222.439 506.957H160.956L158.068 502.831V506.957H143.213V498.292C141.15 499.117 138.674 499.53 135.786 499.53H136.611V506.544H115.979L113.091 502.418L110.202 506.544H77.191V473.946H110.202L113.091 478.072L115.979 473.946H229.454L229.454 479.31H218.313C213.774 479.31 210.886 482.199 210.886 485.913C210.886 490.039 213.361 492.102 217.488 492.102H222.439C223.677 492.102 224.503 492.927 224.503 494.165C224.915 495.816 224.09 496.641 222.439 496.641H211.298V501.18H222.027C226.552 501.18 229.437 498.309 229.454 494.202ZM229.454 494.126C229.438 490.026 226.965 487.976 222.852 487.976H217.9C216.663 487.976 215.837 487.15 215.837 485.913C215.837 484.675 216.663 483.849 217.9 483.849H227.391L229.454 479.31L229.454 494.126ZM191.079 496.641H202.22C203.458 496.641 204.696 495.816 204.283 494.165C204.283 492.927 203.458 492.102 202.22 492.102H197.269C193.142 492.102 190.666 490.039 190.666 485.913C190.666 482.199 193.555 479.31 198.094 479.31H209.235L207.172 483.849H197.681C196.443 483.849 195.618 484.675 195.618 485.913C195.618 487.15 196.443 487.976 197.681 487.976H202.633C206.759 487.976 209.235 490.039 209.235 494.165C209.235 498.292 206.347 501.18 201.808 501.18H191.079V496.641ZM187.778 478.898V483.024H175.399V487.15H187.365V491.689H175.399V496.228H187.778V500.767H170.447V478.898H187.778ZM162.607 485.913C162.607 484.675 161.782 483.437 159.719 483.437L153.529 483.024V488.388H159.719C161.782 488.388 162.607 487.15 162.607 485.913ZM156.005 492.927H153.529L153.116 500.767H148.165V478.898H159.719C164.258 478.898 167.146 481.786 167.146 485.913C167.146 489.214 165.083 491.689 161.369 492.515L168.797 500.767H162.607L156.005 492.927ZM137.436 489.214C139.499 489.214 140.325 487.976 140.325 486.325C140.325 484.675 139.087 483.437 137.024 483.437H130.834V489.214H137.436ZM125.882 500.767V478.898L137.849 478.485C142.388 478.485 145.276 481.786 145.276 485.913C145.276 490.452 141.975 493.34 137.436 493.34H130.834V500.767H125.882ZM124.644 500.767H118.455L113.091 493.34L107.726 500.355H101.537L110.202 489.626L101.537 478.898H107.726L113.091 485.913L118.455 478.898H124.644L115.979 489.626L124.644 500.767ZM99.8862 478.898V483.024H87.5071V487.15H99.4736V491.689H87.5071V496.228H99.8862V500.767H82.5554V478.898H99.8862ZM208.822 457.853L200.157 444.649L199.332 442.998V457.853H194.38V435.983H200.982L208.822 448.363L210.06 450.426V435.983H215.012V457.853H208.822ZM180.35 439.697L178.7 444.236L176.637 449.188H184.064L182.001 444.236L180.35 439.697ZM192.73 457.853H187.365L185.302 453.314H174.574L172.51 457.853H167.146L176.637 435.983H183.239L192.73 457.853ZM166.321 453.314L164.258 457.853C158.068 457.853 154.354 453.727 154.354 447.125V446.712C154.354 440.522 158.068 435.983 164.67 435.983H170.447V440.522H165.083C161.369 440.522 159.306 442.998 159.306 446.712V447.125C159.306 450.838 161.369 453.314 165.083 453.314H166.321ZM150.641 457.853H145.689V436.396H150.641V457.853ZM137.849 442.998C137.849 441.76 137.024 440.522 134.96 440.522L128.771 440.11V445.474H134.96C137.024 445.474 137.849 444.236 137.849 442.998ZM131.247 450.013H128.771L128.358 457.853H123.407V435.983H134.96C139.499 435.983 142.388 438.872 142.388 442.998C142.388 446.299 140.325 448.775 136.611 449.6L144.038 457.853H137.849L131.247 450.013ZM119.693 435.983V440.11H107.314V444.236H119.28V448.775H107.314V453.314H119.693V457.853H102.362V435.983H119.693ZM86.6818 457.853H82.1428L76.3659 440.11V457.853H71.4142V435.983H79.667L84.6186 450.838L89.5703 435.983H97.823V457.853H92.8714V440.11L86.6818 457.853ZM56.9719 439.697L55.3214 444.236L53.2582 449.188H60.6856L58.6225 444.236L56.9719 439.697ZM69.351 457.853H63.9867L62.3362 453.314H51.6076L49.5444 457.853H44.1801L53.6708 435.983H59.8604L69.351 457.853Z" fill="white"/>
</svg>
